<?xml version="1.0" encoding="UTF-8" standalone="no"?><svg xmlns="http://www.w3.org/2000/svg" xmlns:xlink="http://www.w3.org/1999/xlink" contentStyleType="text/css" height="436px" preserveAspectRatio="none" style="width:269px;height:436px;background:#FFFFFF;" version="1.1" viewBox="0 0 269 436" width="269px" zoomAndPan="magnify"><defs/><g><!--class org.hmis.instituto.Actividad--><a href="Actividad.html" target="_top" title="Actividad.html" xlink:actuate="onRequest" xlink:href="Actividad.html" xlink:show="new" xlink:title="Actividad.html" xlink:type="simple"><g id="elem_org.hmis.instituto.Actividad"><rect codeLine="5" fill="#F1F1F1" height="302.7188" id="org.hmis.instituto.Actividad" rx="2.5" ry="2.5" style="stroke:#181818;stroke-width:0.5;" width="255" x="7" y="107"/><ellipse cx="90.25" cy="127.0938" fill="#ADD1B2" rx="11" ry="11" style="stroke:#181818;stroke-width:1.0;"/><path d="M93.0156,122.9688 Q93.1719,122.75 93.3594,122.6406 Q93.5469,122.5313 93.7656,122.5313 Q94.1406,122.5313 94.375,122.7969 Q94.6094,123.0469 94.6094,123.6563 L94.6094,125.1094 Q94.6094,125.7188 94.375,125.9844 Q94.1406,126.25 93.7656,126.25 Q93.4219,126.25 93.2188,126.0469 Q93.0156,125.8594 92.9063,125.3438 Q92.8594,124.9844 92.6719,124.7969 Q92.3438,124.4219 91.7344,124.2031 Q91.125,123.9844 90.5,123.9844 Q89.7344,123.9844 89.0938,124.3125 Q88.4688,124.6406 87.9688,125.3906 Q87.4844,126.1406 87.4844,127.1719 L87.4844,128.2656 Q87.4844,129.5 88.375,130.3281 Q89.2656,131.1406 90.8594,131.1406 Q91.7969,131.1406 92.4531,130.8906 Q92.8438,130.7344 93.2656,130.2969 Q93.5313,130.0313 93.6719,129.9531 Q93.8281,129.875 94.0313,129.875 Q94.3594,129.875 94.6094,130.1406 Q94.875,130.3906 94.875,130.7344 Q94.875,131.0781 94.5313,131.4844 Q94.0313,132.0625 93.2344,132.3906 Q92.1563,132.8438 90.8594,132.8438 Q89.3438,132.8438 88.1406,132.2188 Q87.1563,131.7188 86.4688,130.6563 Q85.7813,129.5781 85.7813,128.2969 L85.7813,127.1406 Q85.7813,125.8125 86.3906,124.6719 Q87.0156,123.5156 88.1094,122.9063 Q89.2031,122.2813 90.4375,122.2813 Q91.1719,122.2813 91.8125,122.4531 Q92.4688,122.6094 93.0156,122.9688 Z " fill="#000000"/><text fill="#000000" font-family="sans-serif" font-size="14" lengthAdjust="spacing" textLength="57" x="122.25" y="126.5332">Actividad</text><text fill="#000000" font-family="sans-serif" font-size="10" lengthAdjust="spacing" textLength="80" x="110.75" y="139.9902">org.hmis.instituto</text><line style="stroke:#181818;stroke-width:0.5;" x1="8" x2="261" y1="147.1875" y2="147.1875"/><rect fill="none" height="6" style="stroke:#C82930;stroke-width:1.0;" width="6" x="15" y="158.4922"/><text fill="#000000" font-family="sans-serif" font-size="14" lengthAdjust="spacing" textLength="93" x="27" y="165.7207">nombre: String</text><rect fill="none" height="6" style="stroke:#C82930;stroke-width:1.0;" width="6" x="15" y="176.1016"/><text fill="#000000" font-family="sans-serif" font-size="14" lengthAdjust="spacing" textLength="97" x="27" y="183.3301">tipo: TipoTarea</text><rect fill="none" height="6" style="stroke:#C82930;stroke-width:1.0;" width="6" x="15" y="193.7109"/><text fill="#000000" font-family="sans-serif" font-size="14" lengthAdjust="spacing" textLength="141" x="27" y="200.9395">valorNumerico: double</text><line style="stroke:#181818;stroke-width:0.5;" x1="8" x2="261" y1="208.0156" y2="208.0156"/><ellipse cx="18" cy="222.3203" fill="#84BE84" rx="3" ry="3" style="stroke:#038048;stroke-width:1.0;"/><text fill="#000000" font-family="sans-serif" font-size="14" lengthAdjust="spacing" textLength="67" x="27" y="226.5488">Actividad()</text><ellipse cx="18" cy="239.9297" fill="#84BE84" rx="3" ry="3" style="stroke:#038048;stroke-width:1.0;"/><text fill="#000000" font-family="sans-serif" font-size="14" lengthAdjust="spacing" textLength="229" x="27" y="244.1582">Actividad(String, TipoTarea, double)</text><ellipse cx="18" cy="257.5391" fill="#84BE84" rx="3" ry="3" style="stroke:#038048;stroke-width:1.0;"/><text fill="#000000" font-family="sans-serif" font-size="14" lengthAdjust="spacing" textLength="123" x="27" y="261.7676">getnombre(): String</text><ellipse cx="18" cy="275.1484" fill="#84BE84" rx="3" ry="3" style="stroke:#038048;stroke-width:1.0;"/><text fill="#000000" font-family="sans-serif" font-size="14" lengthAdjust="spacing" textLength="148" x="27" y="279.377">setnombre(String): void</text><ellipse cx="18" cy="292.7578" fill="#84BE84" rx="3" ry="3" style="stroke:#038048;stroke-width:1.0;"/><text fill="#000000" font-family="sans-serif" font-size="14" lengthAdjust="spacing" textLength="132" x="27" y="296.9863">getTipo(): TipoTarea</text><ellipse cx="18" cy="310.3672" fill="#84BE84" rx="3" ry="3" style="stroke:#038048;stroke-width:1.0;"/><text fill="#000000" font-family="sans-serif" font-size="14" lengthAdjust="spacing" textLength="157" x="27" y="314.5957">setTipo(TipoTarea): void</text><ellipse cx="18" cy="327.9766" fill="#84BE84" rx="3" ry="3" style="stroke:#038048;stroke-width:1.0;"/><text fill="#000000" font-family="sans-serif" font-size="14" lengthAdjust="spacing" textLength="173" x="27" y="332.2051">getValorNumerico(): double</text><ellipse cx="18" cy="345.5859" fill="#84BE84" rx="3" ry="3" style="stroke:#038048;stroke-width:1.0;"/><text fill="#000000" font-family="sans-serif" font-size="14" lengthAdjust="spacing" textLength="198" x="27" y="349.8145">setValorNumerico(double): void</text><ellipse cx="18" cy="363.1953" fill="#84BE84" rx="3" ry="3" style="stroke:#038048;stroke-width:1.0;"/><text fill="#000000" font-family="sans-serif" font-size="14" lengthAdjust="spacing" textLength="104" x="27" y="367.4238">toString(): String</text><ellipse cx="18" cy="380.8047" fill="#84BE84" rx="3" ry="3" style="stroke:#038048;stroke-width:1.0;"/><text fill="#000000" font-family="sans-serif" font-size="14" lengthAdjust="spacing" textLength="152" x="27" y="385.0332">equals(Object): boolean</text><ellipse cx="18" cy="398.4141" fill="#84BE84" rx="3" ry="3" style="stroke:#038048;stroke-width:1.0;"/><text fill="#000000" font-family="sans-serif" font-size="14" lengthAdjust="spacing" textLength="173" x="27" y="402.6426">calcularGradoNota(): String</text></g></a><!--class java.lang.Object--><g id="elem_java.lang.Object"><rect codeLine="22" fill="#F1F1F1" height="40.1875" id="java.lang.Object" rx="2.5" ry="2.5" style="stroke:#181818;stroke-width:0.5;" width="76" x="96.5" y="7"/><ellipse cx="111.5" cy="27.0938" fill="#ADD1B2" rx="11" ry="11" style="stroke:#181818;stroke-width:1.0;"/><path d="M114.2656,22.9688 Q114.4219,22.75 114.6094,22.6406 Q114.7969,22.5313 115.0156,22.5313 Q115.3906,22.5313 115.625,22.7969 Q115.8594,23.0469 115.8594,23.6563 L115.8594,25.1094 Q115.8594,25.7188 115.625,25.9844 Q115.3906,26.25 115.0156,26.25 Q114.6719,26.25 114.4688,26.0469 Q114.2656,25.8594 114.1563,25.3438 Q114.1094,24.9844 113.9219,24.7969 Q113.5938,24.4219 112.9844,24.2031 Q112.375,23.9844 111.75,23.9844 Q110.9844,23.9844 110.3438,24.3125 Q109.7188,24.6406 109.2188,25.3906 Q108.7344,26.1406 108.7344,27.1719 L108.7344,28.2656 Q108.7344,29.5 109.625,30.3281 Q110.5156,31.1406 112.1094,31.1406 Q113.0469,31.1406 113.7031,30.8906 Q114.0938,30.7344 114.5156,30.2969 Q114.7813,30.0313 114.9219,29.9531 Q115.0781,29.875 115.2813,29.875 Q115.6094,29.875 115.8594,30.1406 Q116.125,30.3906 116.125,30.7344 Q116.125,31.0781 115.7813,31.4844 Q115.2813,32.0625 114.4844,32.3906 Q113.4063,32.8438 112.1094,32.8438 Q110.5938,32.8438 109.3906,32.2188 Q108.4063,31.7188 107.7188,30.6563 Q107.0313,29.5781 107.0313,28.2969 L107.0313,27.1406 Q107.0313,25.8125 107.6406,24.6719 Q108.2656,23.5156 109.3594,22.9063 Q110.4531,22.2813 111.6875,22.2813 Q112.4219,22.2813 113.0625,22.4531 Q113.7188,22.6094 114.2656,22.9688 Z " fill="#000000"/><text fill="#000000" font-family="sans-serif" font-size="14" lengthAdjust="spacing" textLength="41" x="127" y="26.5332">Object</text><text fill="#000000" font-family="sans-serif" font-size="10" lengthAdjust="spacing" textLength="44" x="125.5" y="39.9902">java.lang</text></g><!--reverse link java.lang.Object to org.hmis.instituto.Actividad--><g id="link_java.lang.Object_org.hmis.instituto.Actividad"><path codeLine="24" d="M134.5,67.57 C134.5,79.21 134.5,92.68 134.5,106.98 " fill="none" id="java.lang.Object-backto-org.hmis.instituto.Actividad" style="stroke:#181818;stroke-width:1.0;"/><polygon fill="none" points="127.5,67.17,134.5,47.17,141.5,67.17,127.5,67.17" style="stroke:#181818;stroke-width:1.0;"/></g><text fill="#888888" font-family="sans-serif" font-size="10" lengthAdjust="spacing" textLength="184" x="35.5" y="426.0996">UMLDoclet 2.1.0, PlantUML 1.2022.14</text><!--SRC=[VLDBQy904BxtLmn2GQa6BJs928L2BwqjQ7kn7YR9g2kR7Rix2VJrtxjvaDWOciCc-Lup0xC008u432RaZXZHaeveKTY2OKCNdeQzYWaeESe7R1NfsBNHX6JF7YxmIADpq9ivzKdJoStyDXALgHZZDrDXupdRNR1Fb0kKSQ8a5Uu1EZY7WzeDwtNz7UmbqPiDV1K5ysTaE0ajJM4fLfbTWuiwyXHM_boX9Mo833NRHPgGLP5Nn9o6cchwggxL7tI1PPbX4poi4axKEvAog_xWhAyhLvCbuoKPg_YFEm_FlUVTv_Q2hQak_-lfY7bGUqZNrbGpjBE4ooQx1g7t5BNhFuK7YiJp8RCcD8qWGXsb6ksznPWNBDXA-UbUcpBmP6SEc66WqUoALQd_Wb9OXhHHc7sFHl-kLLMSZ925BNF-UdbykED8-rjn7Ko2yH2UVQHu52upiawnwGz-0G00]--></g></svg>