<?xml version="1.0" encoding="UTF-8" standalone="no"?><svg xmlns="http://www.w3.org/2000/svg" xmlns:xlink="http://www.w3.org/1999/xlink" contentStyleType="text/css" height="365px" preserveAspectRatio="none" style="width:367px;height:365px;background:#FFFFFF;" version="1.1" viewBox="0 0 367 365" width="367px" zoomAndPan="magnify"><defs/><g><!--class org.hmis.instituto.Alumno--><a href="Alumno.html" target="_top" title="Alumno.html" xlink:actuate="onRequest" xlink:href="Alumno.html" xlink:show="new" xlink:title="Alumno.html" xlink:type="simple"><g id="elem_org.hmis.instituto.Alumno"><rect codeLine="5" fill="#F1F1F1" height="232.2813" id="org.hmis.instituto.Alumno" rx="2.5" ry="2.5" style="stroke:#181818;stroke-width:0.5;" width="351" x="9" y="107"/><ellipse cx="140.25" cy="127.0938" fill="#ADD1B2" rx="11" ry="11" style="stroke:#181818;stroke-width:1.0;"/><path d="M143.0156,122.9688 Q143.1719,122.75 143.3594,122.6406 Q143.5469,122.5313 143.7656,122.5313 Q144.1406,122.5313 144.375,122.7969 Q144.6094,123.0469 144.6094,123.6563 L144.6094,125.1094 Q144.6094,125.7188 144.375,125.9844 Q144.1406,126.25 143.7656,126.25 Q143.4219,126.25 143.2188,126.0469 Q143.0156,125.8594 142.9063,125.3438 Q142.8594,124.9844 142.6719,124.7969 Q142.3438,124.4219 141.7344,124.2031 Q141.125,123.9844 140.5,123.9844 Q139.7344,123.9844 139.0938,124.3125 Q138.4688,124.6406 137.9688,125.3906 Q137.4844,126.1406 137.4844,127.1719 L137.4844,128.2656 Q137.4844,129.5 138.375,130.3281 Q139.2656,131.1406 140.8594,131.1406 Q141.7969,131.1406 142.4531,130.8906 Q142.8438,130.7344 143.2656,130.2969 Q143.5313,130.0313 143.6719,129.9531 Q143.8281,129.875 144.0313,129.875 Q144.3594,129.875 144.6094,130.1406 Q144.875,130.3906 144.875,130.7344 Q144.875,131.0781 144.5313,131.4844 Q144.0313,132.0625 143.2344,132.3906 Q142.1563,132.8438 140.8594,132.8438 Q139.3438,132.8438 138.1406,132.2188 Q137.1563,131.7188 136.4688,130.6563 Q135.7813,129.5781 135.7813,128.2969 L135.7813,127.1406 Q135.7813,125.8125 136.3906,124.6719 Q137.0156,123.5156 138.1094,122.9063 Q139.2031,122.2813 140.4375,122.2813 Q141.1719,122.2813 141.8125,122.4531 Q142.4688,122.6094 143.0156,122.9688 Z " fill="#000000"/><text fill="#000000" font-family="sans-serif" font-size="14" lengthAdjust="spacing" textLength="47" x="177.25" y="126.5332">Alumno</text><text fill="#000000" font-family="sans-serif" font-size="10" lengthAdjust="spacing" textLength="80" x="160.75" y="139.9902">org.hmis.instituto</text><line style="stroke:#181818;stroke-width:0.5;" x1="10" x2="359" y1="147.1875" y2="147.1875"/><rect fill="none" height="6" style="stroke:#C82930;stroke-width:1.0;" width="6" x="17" y="158.4922"/><text fill="#000000" font-family="sans-serif" font-size="14" lengthAdjust="spacing" textLength="56" x="29" y="165.7207">id: String</text><polygon fill="none" points="20,175.1016,16,181.1016,24,181.1016" style="stroke:#1963A0;stroke-width:1.0;"/><text fill="#000000" font-family="sans-serif" font-size="14" lengthAdjust="spacing" textLength="269" x="29" y="183.3301">estudiaAsignaturas: ArrayList&lt;Asignatura&gt;</text><line style="stroke:#181818;stroke-width:0.5;" x1="10" x2="359" y1="190.4063" y2="190.4063"/><ellipse cx="20" cy="204.7109" fill="#84BE84" rx="3" ry="3" style="stroke:#038048;stroke-width:1.0;"/><text fill="#000000" font-family="sans-serif" font-size="14" lengthAdjust="spacing" textLength="229" x="29" y="208.9395">Alumno(String, String, String, String)</text><ellipse cx="20" cy="222.3203" fill="#84BE84" rx="3" ry="3" style="stroke:#038048;stroke-width:1.0;"/><text fill="#000000" font-family="sans-serif" font-size="14" lengthAdjust="spacing" textLength="86" x="29" y="226.5488">getId(): String</text><ellipse cx="20" cy="239.9297" fill="#84BE84" rx="3" ry="3" style="stroke:#038048;stroke-width:1.0;"/><text fill="#000000" font-family="sans-serif" font-size="14" lengthAdjust="spacing" textLength="111" x="29" y="244.1582">setId(String): void</text><ellipse cx="20" cy="257.5391" fill="#84BE84" rx="3" ry="3" style="stroke:#038048;stroke-width:1.0;"/><text fill="#000000" font-family="sans-serif" font-size="14" lengthAdjust="spacing" textLength="300" x="29" y="261.7676">getEstudiaAsignaturas(): ArrayList&lt;Asignatura&gt;</text><ellipse cx="20" cy="275.1484" fill="#84BE84" rx="3" ry="3" style="stroke:#038048;stroke-width:1.0;"/><text fill="#000000" font-family="sans-serif" font-size="14" lengthAdjust="spacing" textLength="325" x="29" y="279.377">setEstudiaAsignaturas(ArrayList&lt;Asignatura&gt;): void</text><ellipse cx="20" cy="292.7578" fill="#84BE84" rx="3" ry="3" style="stroke:#038048;stroke-width:1.0;"/><text fill="#000000" font-family="sans-serif" font-size="14" lengthAdjust="spacing" textLength="105" x="29" y="296.9863">generarId(): void</text><ellipse cx="20" cy="310.3672" fill="#84BE84" rx="3" ry="3" style="stroke:#038048;stroke-width:1.0;"/><text fill="#000000" font-family="sans-serif" font-size="14" lengthAdjust="spacing" textLength="163" x="29" y="314.5957">calcularPasaCurso(): void</text><ellipse cx="20" cy="327.9766" fill="#84BE84" rx="3" ry="3" style="stroke:#038048;stroke-width:1.0;"/><text fill="#000000" font-family="sans-serif" font-size="14" lengthAdjust="spacing" textLength="149" x="29" y="332.2051">calcularNotaMedia(): int</text></g></a><!--class org.hmis.instituto.Persona--><a href="Persona.html" target="_top" title="Persona.html" xlink:actuate="onRequest" xlink:href="Persona.html" xlink:show="new" xlink:title="Persona.html" xlink:type="simple"><g id="elem_org.hmis.instituto.Persona"><rect codeLine="18" fill="#F1F1F1" height="40.1875" id="org.hmis.instituto.Persona" rx="2.5" ry="2.5" style="stroke:#181818;stroke-width:0.5;" width="112" x="128.5" y="7"/><ellipse cx="143.5" cy="27.0938" fill="#ADD1B2" rx="11" ry="11" style="stroke:#181818;stroke-width:1.0;"/><path d="M146.2656,22.9688 Q146.4219,22.75 146.6094,22.6406 Q146.7969,22.5313 147.0156,22.5313 Q147.3906,22.5313 147.625,22.7969 Q147.8594,23.0469 147.8594,23.6563 L147.8594,25.1094 Q147.8594,25.7188 147.625,25.9844 Q147.3906,26.25 147.0156,26.25 Q146.6719,26.25 146.4688,26.0469 Q146.2656,25.8594 146.1563,25.3438 Q146.1094,24.9844 145.9219,24.7969 Q145.5938,24.4219 144.9844,24.2031 Q144.375,23.9844 143.75,23.9844 Q142.9844,23.9844 142.3438,24.3125 Q141.7188,24.6406 141.2188,25.3906 Q140.7344,26.1406 140.7344,27.1719 L140.7344,28.2656 Q140.7344,29.5 141.625,30.3281 Q142.5156,31.1406 144.1094,31.1406 Q145.0469,31.1406 145.7031,30.8906 Q146.0938,30.7344 146.5156,30.2969 Q146.7813,30.0313 146.9219,29.9531 Q147.0781,29.875 147.2813,29.875 Q147.6094,29.875 147.8594,30.1406 Q148.125,30.3906 148.125,30.7344 Q148.125,31.0781 147.7813,31.4844 Q147.2813,32.0625 146.4844,32.3906 Q145.4063,32.8438 144.1094,32.8438 Q142.5938,32.8438 141.3906,32.2188 Q140.4063,31.7188 139.7188,30.6563 Q139.0313,29.5781 139.0313,28.2969 L139.0313,27.1406 Q139.0313,25.8125 139.6406,24.6719 Q140.2656,23.5156 141.3594,22.9063 Q142.4531,22.2813 143.6875,22.2813 Q144.4219,22.2813 145.0625,22.4531 Q145.7188,22.6094 146.2656,22.9688 Z " fill="#000000"/><text fill="#000000" font-family="sans-serif" font-size="14" lengthAdjust="spacing" textLength="53" x="171" y="26.5332">Persona</text><text fill="#000000" font-family="sans-serif" font-size="10" lengthAdjust="spacing" textLength="80" x="157.5" y="39.9902">org.hmis.instituto</text></g></a><!--reverse link org.hmis.instituto.Persona to org.hmis.instituto.Alumno--><g id="link_org.hmis.instituto.Persona_org.hmis.instituto.Alumno"><path codeLine="20" d="M184.5,67.45 C184.5,79.23 184.5,92.78 184.5,106.86 " fill="none" id="org.hmis.instituto.Persona-backto-org.hmis.instituto.Alumno" style="stroke:#181818;stroke-width:1.0;"/><polygon fill="none" points="177.5,67.31,184.5,47.31,191.5,67.31,177.5,67.31" style="stroke:#181818;stroke-width:1.0;"/></g><text fill="#888888" font-family="sans-serif" font-size="10" lengthAdjust="spacing" textLength="184" x="84.5" y="355.6621">UMLDoclet 2.1.0, PlantUML 1.2022.14</text><!--SRC=[dL9DQy904BttLmn2GL63bfw21AJjeQ15a9wiXo4PauNDhknC1FlrsxlvG55Z2ztBB6_UU_DW1W20IS1WJhp5c9QqHOTY7HXhwCQt8LC90ULRsSD6aKxu7Cr9CklX2eyrCaDdmkgTml5zDDL5RkoRQO1HP5qQPBdYG1aM9ONO3Y339HpKKbYjwa-GIQxNQ_YevfHlg98GbkAKIG_ODx4KYS8fgzIW50uvXAbpk9yfbiaHZWwIVktVhPq6q5vxHtvAyfnqUnUp-rmr6du8EwkI4zNJHRRIvOzqtAfh5RNCDEJGrMbFMp7gkD3e5iZuK3YsroalLd1EFa19KKOgnbVxlXVahGp-Q-6Drc-y-JKhhoVz8fXy3eVNBwW9IaR8mSRQihpEPuysrlxqxu9nC1h0GgCHZyBjpfigQxgz7m00]--></g></svg>