<?xml version="1.0" encoding="UTF-8" standalone="no"?><svg xmlns="http://www.w3.org/2000/svg" xmlns:xlink="http://www.w3.org/1999/xlink" contentStyleType="text/css" height="313px" preserveAspectRatio="none" style="width:304px;height:313px;background:#FFFFFF;" version="1.1" viewBox="0 0 304 313" width="304px" zoomAndPan="magnify"><defs/><g><!--class org.hmis.instituto.Asignatura--><a href="Asignatura.html" target="_top" title="Asignatura.html" xlink:actuate="onRequest" xlink:href="Asignatura.html" xlink:show="new" xlink:title="Asignatura.html" xlink:type="simple"><g id="elem_org.hmis.instituto.Asignatura"><rect codeLine="5" fill="#F1F1F1" height="179.4531" id="org.hmis.instituto.Asignatura" rx="2.5" ry="2.5" style="stroke:#181818;stroke-width:0.5;" width="290" x="7" y="107"/><ellipse cx="107.75" cy="127.0938" fill="#ADD1B2" rx="11" ry="11" style="stroke:#181818;stroke-width:1.0;"/><path d="M110.5156,122.9688 Q110.6719,122.75 110.8594,122.6406 Q111.0469,122.5313 111.2656,122.5313 Q111.6406,122.5313 111.875,122.7969 Q112.1094,123.0469 112.1094,123.6563 L112.1094,125.1094 Q112.1094,125.7188 111.875,125.9844 Q111.6406,126.25 111.2656,126.25 Q110.9219,126.25 110.7188,126.0469 Q110.5156,125.8594 110.4063,125.3438 Q110.3594,124.9844 110.1719,124.7969 Q109.8438,124.4219 109.2344,124.2031 Q108.625,123.9844 108,123.9844 Q107.2344,123.9844 106.5938,124.3125 Q105.9688,124.6406 105.4688,125.3906 Q104.9844,126.1406 104.9844,127.1719 L104.9844,128.2656 Q104.9844,129.5 105.875,130.3281 Q106.7656,131.1406 108.3594,131.1406 Q109.2969,131.1406 109.9531,130.8906 Q110.3438,130.7344 110.7656,130.2969 Q111.0313,130.0313 111.1719,129.9531 Q111.3281,129.875 111.5313,129.875 Q111.8594,129.875 112.1094,130.1406 Q112.375,130.3906 112.375,130.7344 Q112.375,131.0781 112.0313,131.4844 Q111.5313,132.0625 110.7344,132.3906 Q109.6563,132.8438 108.3594,132.8438 Q106.8438,132.8438 105.6406,132.2188 Q104.6563,131.7188 103.9688,130.6563 Q103.2813,129.5781 103.2813,128.2969 L103.2813,127.1406 Q103.2813,125.8125 103.8906,124.6719 Q104.5156,123.5156 105.6094,122.9063 Q106.7031,122.2813 107.9375,122.2813 Q108.6719,122.2813 109.3125,122.4531 Q109.9688,122.6094 110.5156,122.9688 Z " fill="#000000"/><text fill="#000000" font-family="sans-serif" font-size="14" lengthAdjust="spacing" textLength="68" x="134.25" y="126.5332">Asignatura</text><text fill="#000000" font-family="sans-serif" font-size="10" lengthAdjust="spacing" textLength="80" x="128.25" y="139.9902">org.hmis.instituto</text><line style="stroke:#181818;stroke-width:0.5;" x1="8" x2="296" y1="147.1875" y2="147.1875"/><rect fill="none" height="6" style="stroke:#C82930;stroke-width:1.0;" width="6" x="15" y="158.4922"/><text fill="#000000" font-family="sans-serif" font-size="14" lengthAdjust="spacing" textLength="79" x="27" y="165.7207">nota: double</text><rect fill="none" height="6" style="stroke:#C82930;stroke-width:1.0;" width="6" x="15" y="176.1016"/><text fill="#000000" font-family="sans-serif" font-size="14" lengthAdjust="spacing" textLength="208" x="27" y="183.3301">actividades: ArrayList&lt;Actividad&gt;</text><line style="stroke:#181818;stroke-width:0.5;" x1="8" x2="296" y1="190.4063" y2="190.4063"/><ellipse cx="18" cy="204.7109" fill="#84BE84" rx="3" ry="3" style="stroke:#038048;stroke-width:1.0;"/><text fill="#000000" font-family="sans-serif" font-size="14" lengthAdjust="spacing" textLength="121" x="27" y="208.9395">Asignatura(double)</text><ellipse cx="18" cy="222.3203" fill="#84BE84" rx="3" ry="3" style="stroke:#038048;stroke-width:1.0;"/><text fill="#000000" font-family="sans-serif" font-size="14" lengthAdjust="spacing" textLength="110" x="27" y="226.5488">getNota(): double</text><ellipse cx="18" cy="239.9297" fill="#84BE84" rx="3" ry="3" style="stroke:#038048;stroke-width:1.0;"/><text fill="#000000" font-family="sans-serif" font-size="14" lengthAdjust="spacing" textLength="135" x="27" y="244.1582">setNota(double): void</text><ellipse cx="18" cy="257.5391" fill="#84BE84" rx="3" ry="3" style="stroke:#038048;stroke-width:1.0;"/><text fill="#000000" font-family="sans-serif" font-size="14" lengthAdjust="spacing" textLength="239" x="27" y="261.7676">getActividades(): ArrayList&lt;Actividad&gt;</text><ellipse cx="18" cy="275.1484" fill="#84BE84" rx="3" ry="3" style="stroke:#038048;stroke-width:1.0;"/><text fill="#000000" font-family="sans-serif" font-size="14" lengthAdjust="spacing" textLength="264" x="27" y="279.377">setActividades(ArrayList&lt;Actividad&gt;): void</text></g></a><!--class java.lang.Object--><g id="elem_java.lang.Object"><rect codeLine="15" fill="#F1F1F1" height="40.1875" id="java.lang.Object" rx="2.5" ry="2.5" style="stroke:#181818;stroke-width:0.5;" width="76" x="114" y="7"/><ellipse cx="129" cy="27.0938" fill="#ADD1B2" rx="11" ry="11" style="stroke:#181818;stroke-width:1.0;"/><path d="M131.7656,22.9688 Q131.9219,22.75 132.1094,22.6406 Q132.2969,22.5313 132.5156,22.5313 Q132.8906,22.5313 133.125,22.7969 Q133.3594,23.0469 133.3594,23.6563 L133.3594,25.1094 Q133.3594,25.7188 133.125,25.9844 Q132.8906,26.25 132.5156,26.25 Q132.1719,26.25 131.9688,26.0469 Q131.7656,25.8594 131.6563,25.3438 Q131.6094,24.9844 131.4219,24.7969 Q131.0938,24.4219 130.4844,24.2031 Q129.875,23.9844 129.25,23.9844 Q128.4844,23.9844 127.8438,24.3125 Q127.2188,24.6406 126.7188,25.3906 Q126.2344,26.1406 126.2344,27.1719 L126.2344,28.2656 Q126.2344,29.5 127.125,30.3281 Q128.0156,31.1406 129.6094,31.1406 Q130.5469,31.1406 131.2031,30.8906 Q131.5938,30.7344 132.0156,30.2969 Q132.2813,30.0313 132.4219,29.9531 Q132.5781,29.875 132.7813,29.875 Q133.1094,29.875 133.3594,30.1406 Q133.625,30.3906 133.625,30.7344 Q133.625,31.0781 133.2813,31.4844 Q132.7813,32.0625 131.9844,32.3906 Q130.9063,32.8438 129.6094,32.8438 Q128.0938,32.8438 126.8906,32.2188 Q125.9063,31.7188 125.2188,30.6563 Q124.5313,29.5781 124.5313,28.2969 L124.5313,27.1406 Q124.5313,25.8125 125.1406,24.6719 Q125.7656,23.5156 126.8594,22.9063 Q127.9531,22.2813 129.1875,22.2813 Q129.9219,22.2813 130.5625,22.4531 Q131.2188,22.6094 131.7656,22.9688 Z " fill="#000000"/><text fill="#000000" font-family="sans-serif" font-size="14" lengthAdjust="spacing" textLength="41" x="144.5" y="26.5332">Object</text><text fill="#000000" font-family="sans-serif" font-size="10" lengthAdjust="spacing" textLength="44" x="143" y="39.9902">java.lang</text></g><!--reverse link java.lang.Object to org.hmis.instituto.Asignatura--><g id="link_java.lang.Object_org.hmis.instituto.Asignatura"><path codeLine="17" d="M152,67.67 C152,79.58 152,93.14 152,106.89 " fill="none" id="java.lang.Object-backto-org.hmis.instituto.Asignatura" style="stroke:#181818;stroke-width:1.0;"/><polygon fill="none" points="145,67.21,152,47.21,159,67.21,145,67.21" style="stroke:#181818;stroke-width:1.0;"/></g><text fill="#888888" font-family="sans-serif" font-size="10" lengthAdjust="spacing" textLength="184" x="53" y="302.834">UMLDoclet 2.1.0, PlantUML 1.2022.14</text><!--SRC=[VP9DQyCm38Rl-nMYC4XeQzgnKmY1m8xT1uoTkXxKH4rS4hjOIg3x-EzBsgpf5_N5w97qla8s002JWC6IU8C9lTC67OfrOAoXkoODkKu9gDp85bQQYfJFQKcIsmRlU58WCmn2rbyKJ1-Zc7LcK2g7dwQ3ayYwJEMbPgKDYvPAx02GuHAhlXtcypvGkPJ5OW7VEy_sZ8qL322rrRAWdc8YkjOffiG1nCxXTgPPmlWVHuVIOQ_kxLNyFfUHl3Jwdd_XCEGkrVK4K5kTddJ6_GojmEqf-BJ-Ml6nn-_rhRykrvJ8qSRNMACgq6IxHHyYjI_SYvnJ27_6uzkFqhcJ4NAmihQzFfvdJpOfcb_reAPgCeAtHbCQ2lSrETRMUFuV]--></g></svg>