<?xml version="1.0" encoding="UTF-8" standalone="no"?><svg xmlns="http://www.w3.org/2000/svg" xmlns:xlink="http://www.w3.org/1999/xlink" contentStyleType="text/css" height="295px" preserveAspectRatio="none" style="width:300px;height:295px;background:#FFFFFF;" version="1.1" viewBox="0 0 300 295" width="300px" zoomAndPan="magnify"><defs/><g><!--class org.hmis.instituto.Aula--><a href="Aula.html" target="_top" title="Aula.html" xlink:actuate="onRequest" xlink:href="Aula.html" xlink:show="new" xlink:title="Aula.html" xlink:type="simple"><g id="elem_org.hmis.instituto.Aula"><rect codeLine="5" fill="#F1F1F1" height="161.8438" id="org.hmis.instituto.Aula" rx="2.5" ry="2.5" style="stroke:#181818;stroke-width:0.5;" width="284" x="9" y="107"/><ellipse cx="106.75" cy="127.0938" fill="#ADD1B2" rx="11" ry="11" style="stroke:#181818;stroke-width:1.0;"/><path d="M109.5156,122.9688 Q109.6719,122.75 109.8594,122.6406 Q110.0469,122.5313 110.2656,122.5313 Q110.6406,122.5313 110.875,122.7969 Q111.1094,123.0469 111.1094,123.6563 L111.1094,125.1094 Q111.1094,125.7188 110.875,125.9844 Q110.6406,126.25 110.2656,126.25 Q109.9219,126.25 109.7188,126.0469 Q109.5156,125.8594 109.4063,125.3438 Q109.3594,124.9844 109.1719,124.7969 Q108.8438,124.4219 108.2344,124.2031 Q107.625,123.9844 107,123.9844 Q106.2344,123.9844 105.5938,124.3125 Q104.9688,124.6406 104.4688,125.3906 Q103.9844,126.1406 103.9844,127.1719 L103.9844,128.2656 Q103.9844,129.5 104.875,130.3281 Q105.7656,131.1406 107.3594,131.1406 Q108.2969,131.1406 108.9531,130.8906 Q109.3438,130.7344 109.7656,130.2969 Q110.0313,130.0313 110.1719,129.9531 Q110.3281,129.875 110.5313,129.875 Q110.8594,129.875 111.1094,130.1406 Q111.375,130.3906 111.375,130.7344 Q111.375,131.0781 111.0313,131.4844 Q110.5313,132.0625 109.7344,132.3906 Q108.6563,132.8438 107.3594,132.8438 Q105.8438,132.8438 104.6406,132.2188 Q103.6563,131.7188 102.9688,130.6563 Q102.2813,129.5781 102.2813,128.2969 L102.2813,127.1406 Q102.2813,125.8125 102.8906,124.6719 Q103.5156,123.5156 104.6094,122.9063 Q105.7031,122.2813 106.9375,122.2813 Q107.6719,122.2813 108.3125,122.4531 Q108.9688,122.6094 109.5156,122.9688 Z " fill="#000000"/><text fill="#000000" font-family="sans-serif" font-size="14" lengthAdjust="spacing" textLength="28" x="153.25" y="126.5332">Aula</text><text fill="#000000" font-family="sans-serif" font-size="10" lengthAdjust="spacing" textLength="80" x="127.25" y="139.9902">org.hmis.instituto</text><line style="stroke:#181818;stroke-width:0.5;" x1="10" x2="292" y1="147.1875" y2="147.1875"/><rect fill="none" height="6" style="stroke:#C82930;stroke-width:1.0;" width="6" x="17" y="158.4922"/><text fill="#000000" font-family="sans-serif" font-size="14" lengthAdjust="spacing" textLength="163" x="29" y="165.7207">capacidadMaxima: double</text><polygon fill="none" points="20,175.1016,16,181.1016,24,181.1016" style="stroke:#1963A0;stroke-width:1.0;"/><text fill="#000000" font-family="sans-serif" font-size="14" lengthAdjust="spacing" textLength="258" x="29" y="183.3301">equipamientos: ArrayList&lt;Equipamiento&gt;</text><line style="stroke:#181818;stroke-width:0.5;" x1="10" x2="292" y1="190.4063" y2="190.4063"/><ellipse cx="20" cy="204.7109" fill="#84BE84" rx="3" ry="3" style="stroke:#038048;stroke-width:1.0;"/><text fill="#000000" font-family="sans-serif" font-size="14" lengthAdjust="spacing" textLength="81" x="29" y="208.9395">Aula(double)</text><ellipse cx="20" cy="222.3203" fill="#84BE84" rx="3" ry="3" style="stroke:#038048;stroke-width:1.0;"/><text fill="#000000" font-family="sans-serif" font-size="14" lengthAdjust="spacing" textLength="196" x="29" y="226.5488">getCapacidadMaxima(): double</text><ellipse cx="20" cy="239.9297" fill="#84BE84" rx="3" ry="3" style="stroke:#038048;stroke-width:1.0;"/><text fill="#000000" font-family="sans-serif" font-size="14" lengthAdjust="spacing" textLength="221" x="29" y="244.1582">setCapacidadMaxima(double): void</text><ellipse cx="20" cy="257.5391" fill="#84BE84" rx="3" ry="3" style="stroke:#038048;stroke-width:1.0;"/><text fill="#000000" font-family="sans-serif" font-size="14" lengthAdjust="spacing" textLength="121" x="29" y="261.7676">calcularLibres(): int</text></g></a><!--class java.lang.Object--><g id="elem_java.lang.Object"><rect codeLine="14" fill="#F1F1F1" height="40.1875" id="java.lang.Object" rx="2.5" ry="2.5" style="stroke:#181818;stroke-width:0.5;" width="76" x="113" y="7"/><ellipse cx="128" cy="27.0938" fill="#ADD1B2" rx="11" ry="11" style="stroke:#181818;stroke-width:1.0;"/><path d="M130.7656,22.9688 Q130.9219,22.75 131.1094,22.6406 Q131.2969,22.5313 131.5156,22.5313 Q131.8906,22.5313 132.125,22.7969 Q132.3594,23.0469 132.3594,23.6563 L132.3594,25.1094 Q132.3594,25.7188 132.125,25.9844 Q131.8906,26.25 131.5156,26.25 Q131.1719,26.25 130.9688,26.0469 Q130.7656,25.8594 130.6563,25.3438 Q130.6094,24.9844 130.4219,24.7969 Q130.0938,24.4219 129.4844,24.2031 Q128.875,23.9844 128.25,23.9844 Q127.4844,23.9844 126.8438,24.3125 Q126.2188,24.6406 125.7188,25.3906 Q125.2344,26.1406 125.2344,27.1719 L125.2344,28.2656 Q125.2344,29.5 126.125,30.3281 Q127.0156,31.1406 128.6094,31.1406 Q129.5469,31.1406 130.2031,30.8906 Q130.5938,30.7344 131.0156,30.2969 Q131.2813,30.0313 131.4219,29.9531 Q131.5781,29.875 131.7813,29.875 Q132.1094,29.875 132.3594,30.1406 Q132.625,30.3906 132.625,30.7344 Q132.625,31.0781 132.2813,31.4844 Q131.7813,32.0625 130.9844,32.3906 Q129.9063,32.8438 128.6094,32.8438 Q127.0938,32.8438 125.8906,32.2188 Q124.9063,31.7188 124.2188,30.6563 Q123.5313,29.5781 123.5313,28.2969 L123.5313,27.1406 Q123.5313,25.8125 124.1406,24.6719 Q124.7656,23.5156 125.8594,22.9063 Q126.9531,22.2813 128.1875,22.2813 Q128.9219,22.2813 129.5625,22.4531 Q130.2188,22.6094 130.7656,22.9688 Z " fill="#000000"/><text fill="#000000" font-family="sans-serif" font-size="14" lengthAdjust="spacing" textLength="41" x="143.5" y="26.5332">Object</text><text fill="#000000" font-family="sans-serif" font-size="10" lengthAdjust="spacing" textLength="44" x="142" y="39.9902">java.lang</text></g><!--reverse link java.lang.Object to org.hmis.instituto.Aula--><g id="link_java.lang.Object_org.hmis.instituto.Aula"><path codeLine="16" d="M151,67.25 C151,79.28 151,92.99 151,106.72 " fill="none" id="java.lang.Object-backto-org.hmis.instituto.Aula" style="stroke:#181818;stroke-width:1.0;"/><polygon fill="none" points="144,67.18,151,47.18,158,67.18,144,67.18" style="stroke:#181818;stroke-width:1.0;"/></g><text fill="#888888" font-family="sans-serif" font-size="10" lengthAdjust="spacing" textLength="184" x="51" y="285.2246">UMLDoclet 2.1.0, PlantUML 1.2022.14</text><!--SRC=[TLBBQW914BpdAneXe1W73Jaj8aYIcv90oCbuwDrjtPPvR6Pw9URrxPbTHOqcSscwggPgA0O08920HKEXn8oUg4IFuZnOP-aYqb1mJa2cb0qic7GUJb53KhW8DtYcCGHe3GE_KpAu6OqhZIzsj_P7pYzLOJWeja5OAd4jm03diAelmcnM3rM8qVCvV3G9zUbb65_BEUPJV6E32UIkIZNj1T_qMd69XicA2mcClSVDX8CCxu-8qLxVhNFQMvFE0LsItFvEQdVEihhXNBLpIc3jE3yeCzHP3F8JJZs5sekjDFJNt_Kzf2lAvAZ05QvHQRJBfhVzfhR2hSaf2iFFNk-_ZdUviGxoi72k7i_JoPtBTFmOrsgW-bVm6Dqaed2v9X_OsNRd1m00]--></g></svg>