<?xml version="1.0" encoding="UTF-8" standalone="no"?><svg xmlns="http://www.w3.org/2000/svg" xmlns:xlink="http://www.w3.org/1999/xlink" contentStyleType="text/css" height="541px" preserveAspectRatio="none" style="width:318px;height:541px;background:#FFFFFF;" version="1.1" viewBox="0 0 318 541" width="318px" zoomAndPan="magnify"><defs/><g><!--class org.hmis.instituto.Curso--><a href="Curso.html" target="_top" title="Curso.html" xlink:actuate="onRequest" xlink:href="Curso.html" xlink:show="new" xlink:title="Curso.html" xlink:type="simple"><g id="elem_org.hmis.instituto.Curso"><rect codeLine="5" fill="#F1F1F1" height="408.375" id="org.hmis.instituto.Curso" rx="2.5" ry="2.5" style="stroke:#181818;stroke-width:0.5;" width="304" x="7" y="107"/><ellipse cx="114.75" cy="127.0938" fill="#ADD1B2" rx="11" ry="11" style="stroke:#181818;stroke-width:1.0;"/><path d="M117.5156,122.9688 Q117.6719,122.75 117.8594,122.6406 Q118.0469,122.5313 118.2656,122.5313 Q118.6406,122.5313 118.875,122.7969 Q119.1094,123.0469 119.1094,123.6563 L119.1094,125.1094 Q119.1094,125.7188 118.875,125.9844 Q118.6406,126.25 118.2656,126.25 Q117.9219,126.25 117.7188,126.0469 Q117.5156,125.8594 117.4063,125.3438 Q117.3594,124.9844 117.1719,124.7969 Q116.8438,124.4219 116.2344,124.2031 Q115.625,123.9844 115,123.9844 Q114.2344,123.9844 113.5938,124.3125 Q112.9688,124.6406 112.4688,125.3906 Q111.9844,126.1406 111.9844,127.1719 L111.9844,128.2656 Q111.9844,129.5 112.875,130.3281 Q113.7656,131.1406 115.3594,131.1406 Q116.2969,131.1406 116.9531,130.8906 Q117.3438,130.7344 117.7656,130.2969 Q118.0313,130.0313 118.1719,129.9531 Q118.3281,129.875 118.5313,129.875 Q118.8594,129.875 119.1094,130.1406 Q119.375,130.3906 119.375,130.7344 Q119.375,131.0781 119.0313,131.4844 Q118.5313,132.0625 117.7344,132.3906 Q116.6563,132.8438 115.3594,132.8438 Q113.8438,132.8438 112.6406,132.2188 Q111.6563,131.7188 110.9688,130.6563 Q110.2813,129.5781 110.2813,128.2969 L110.2813,127.1406 Q110.2813,125.8125 110.8906,124.6719 Q111.5156,123.5156 112.6094,122.9063 Q113.7031,122.2813 114.9375,122.2813 Q115.6719,122.2813 116.3125,122.4531 Q116.9688,122.6094 117.5156,122.9688 Z " fill="#000000"/><text fill="#000000" font-family="sans-serif" font-size="14" lengthAdjust="spacing" textLength="38" x="156.25" y="126.5332">Curso</text><text fill="#000000" font-family="sans-serif" font-size="10" lengthAdjust="spacing" textLength="80" x="135.25" y="139.9902">org.hmis.instituto</text><line style="stroke:#181818;stroke-width:0.5;" x1="8" x2="310" y1="147.1875" y2="147.1875"/><rect fill="none" height="6" style="stroke:#C82930;stroke-width:1.0;" width="6" x="15" y="158.4922"/><text fill="#000000" font-family="sans-serif" font-size="14" lengthAdjust="spacing" textLength="153" x="27" y="165.7207">comienzoDeCurso: Date</text><rect fill="none" height="6" style="stroke:#C82930;stroke-width:1.0;" width="6" x="15" y="176.1016"/><text fill="#000000" font-family="sans-serif" font-size="14" lengthAdjust="spacing" textLength="109" x="27" y="183.3301">finDeCurso: Date</text><rect fill="none" height="6" style="stroke:#C82930;stroke-width:1.0;" width="6" x="15" y="193.7109"/><text fill="#000000" font-family="sans-serif" font-size="14" lengthAdjust="spacing" textLength="93" x="27" y="200.9395">nombre: String</text><rect fill="none" height="6" style="stroke:#C82930;stroke-width:1.0;" width="6" x="15" y="211.3203"/><text fill="#000000" font-family="sans-serif" font-size="14" lengthAdjust="spacing" textLength="82" x="27" y="218.5488">insti: Instituto</text><rect fill="none" height="6" style="stroke:#C82930;stroke-width:1.0;" width="6" x="15" y="228.9297"/><text fill="#000000" font-family="sans-serif" font-size="14" lengthAdjust="spacing" textLength="222" x="27" y="236.1582">asignaturas: ArrayList&lt;Asignatura&gt;</text><rect fill="none" height="6" style="stroke:#C82930;stroke-width:1.0;" width="6" x="15" y="246.5391"/><text fill="#000000" font-family="sans-serif" font-size="14" lengthAdjust="spacing" textLength="109" x="27" y="253.7676">tutorCurso: Tutor</text><line style="stroke:#181818;stroke-width:0.5;" x1="8" x2="310" y1="260.8438" y2="260.8438"/><ellipse cx="18" cy="275.1484" fill="#84BE84" rx="3" ry="3" style="stroke:#038048;stroke-width:1.0;"/><text fill="#000000" font-family="sans-serif" font-size="14" lengthAdjust="spacing" textLength="139" x="27" y="279.377">Curso(Instituto, Tutor)</text><ellipse cx="18" cy="292.7578" fill="#84BE84" rx="3" ry="3" style="stroke:#038048;stroke-width:1.0;"/><text fill="#000000" font-family="sans-serif" font-size="14" lengthAdjust="spacing" textLength="186" x="27" y="296.9863">getComienzoDeCurso(): Date</text><ellipse cx="18" cy="310.3672" fill="#84BE84" rx="3" ry="3" style="stroke:#038048;stroke-width:1.0;"/><text fill="#000000" font-family="sans-serif" font-size="14" lengthAdjust="spacing" textLength="211" x="27" y="314.5957">setComienzoDeCurso(Date): void</text><ellipse cx="18" cy="327.9766" fill="#84BE84" rx="3" ry="3" style="stroke:#038048;stroke-width:1.0;"/><text fill="#000000" font-family="sans-serif" font-size="14" lengthAdjust="spacing" textLength="144" x="27" y="332.2051">getFinDeCurso(): Date</text><ellipse cx="18" cy="345.5859" fill="#84BE84" rx="3" ry="3" style="stroke:#038048;stroke-width:1.0;"/><text fill="#000000" font-family="sans-serif" font-size="14" lengthAdjust="spacing" textLength="169" x="27" y="349.8145">setFinDeCurso(Date): void</text><ellipse cx="18" cy="363.1953" fill="#84BE84" rx="3" ry="3" style="stroke:#038048;stroke-width:1.0;"/><text fill="#000000" font-family="sans-serif" font-size="14" lengthAdjust="spacing" textLength="124" x="27" y="367.4238">getNombre(): String</text><ellipse cx="18" cy="380.8047" fill="#84BE84" rx="3" ry="3" style="stroke:#038048;stroke-width:1.0;"/><text fill="#000000" font-family="sans-serif" font-size="14" lengthAdjust="spacing" textLength="149" x="27" y="385.0332">setNombre(String): void</text><ellipse cx="18" cy="398.4141" fill="#84BE84" rx="3" ry="3" style="stroke:#038048;stroke-width:1.0;"/><text fill="#000000" font-family="sans-serif" font-size="14" lengthAdjust="spacing" textLength="112" x="27" y="402.6426">getInsti(): Instituto</text><ellipse cx="18" cy="416.0234" fill="#84BE84" rx="3" ry="3" style="stroke:#038048;stroke-width:1.0;"/><text fill="#000000" font-family="sans-serif" font-size="14" lengthAdjust="spacing" textLength="137" x="27" y="420.252">setInsti(Instituto): void</text><ellipse cx="18" cy="433.6328" fill="#84BE84" rx="3" ry="3" style="stroke:#038048;stroke-width:1.0;"/><text fill="#000000" font-family="sans-serif" font-size="14" lengthAdjust="spacing" textLength="253" x="27" y="437.8613">getAsignaturas(): ArrayList&lt;Asignatura&gt;</text><ellipse cx="18" cy="451.2422" fill="#84BE84" rx="3" ry="3" style="stroke:#038048;stroke-width:1.0;"/><text fill="#000000" font-family="sans-serif" font-size="14" lengthAdjust="spacing" textLength="278" x="27" y="455.4707">setAsignaturas(ArrayList&lt;Asignatura&gt;): void</text><ellipse cx="18" cy="468.8516" fill="#84BE84" rx="3" ry="3" style="stroke:#038048;stroke-width:1.0;"/><text fill="#000000" font-family="sans-serif" font-size="14" lengthAdjust="spacing" textLength="144" x="27" y="473.0801">getTutorCurso(): Tutor</text><ellipse cx="18" cy="486.4609" fill="#84BE84" rx="3" ry="3" style="stroke:#038048;stroke-width:1.0;"/><text fill="#000000" font-family="sans-serif" font-size="14" lengthAdjust="spacing" textLength="169" x="27" y="490.6895">setTutorCurso(Tutor): void</text><ellipse cx="18" cy="504.0703" fill="#84BE84" rx="3" ry="3" style="stroke:#038048;stroke-width:1.0;"/><text fill="#000000" font-family="sans-serif" font-size="14" lengthAdjust="spacing" textLength="234" x="27" y="508.2988">porcentajeCursoTerminado(): double</text></g></a><!--class java.lang.Object--><g id="elem_java.lang.Object"><rect codeLine="28" fill="#F1F1F1" height="40.1875" id="java.lang.Object" rx="2.5" ry="2.5" style="stroke:#181818;stroke-width:0.5;" width="76" x="121" y="7"/><ellipse cx="136" cy="27.0938" fill="#ADD1B2" rx="11" ry="11" style="stroke:#181818;stroke-width:1.0;"/><path d="M138.7656,22.9688 Q138.9219,22.75 139.1094,22.6406 Q139.2969,22.5313 139.5156,22.5313 Q139.8906,22.5313 140.125,22.7969 Q140.3594,23.0469 140.3594,23.6563 L140.3594,25.1094 Q140.3594,25.7188 140.125,25.9844 Q139.8906,26.25 139.5156,26.25 Q139.1719,26.25 138.9688,26.0469 Q138.7656,25.8594 138.6563,25.3438 Q138.6094,24.9844 138.4219,24.7969 Q138.0938,24.4219 137.4844,24.2031 Q136.875,23.9844 136.25,23.9844 Q135.4844,23.9844 134.8438,24.3125 Q134.2188,24.6406 133.7188,25.3906 Q133.2344,26.1406 133.2344,27.1719 L133.2344,28.2656 Q133.2344,29.5 134.125,30.3281 Q135.0156,31.1406 136.6094,31.1406 Q137.5469,31.1406 138.2031,30.8906 Q138.5938,30.7344 139.0156,30.2969 Q139.2813,30.0313 139.4219,29.9531 Q139.5781,29.875 139.7813,29.875 Q140.1094,29.875 140.3594,30.1406 Q140.625,30.3906 140.625,30.7344 Q140.625,31.0781 140.2813,31.4844 Q139.7813,32.0625 138.9844,32.3906 Q137.9063,32.8438 136.6094,32.8438 Q135.0938,32.8438 133.8906,32.2188 Q132.9063,31.7188 132.2188,30.6563 Q131.5313,29.5781 131.5313,28.2969 L131.5313,27.1406 Q131.5313,25.8125 132.1406,24.6719 Q132.7656,23.5156 133.8594,22.9063 Q134.9531,22.2813 136.1875,22.2813 Q136.9219,22.2813 137.5625,22.4531 Q138.2188,22.6094 138.7656,22.9688 Z " fill="#000000"/><text fill="#000000" font-family="sans-serif" font-size="14" lengthAdjust="spacing" textLength="41" x="151.5" y="26.5332">Object</text><text fill="#000000" font-family="sans-serif" font-size="10" lengthAdjust="spacing" textLength="44" x="150" y="39.9902">java.lang</text></g><!--reverse link java.lang.Object to org.hmis.instituto.Curso--><g id="link_java.lang.Object_org.hmis.instituto.Curso"><path codeLine="30" d="M159,67.5 C159,79.01 159,92.45 159,106.99 " fill="none" id="java.lang.Object-backto-org.hmis.instituto.Curso" style="stroke:#181818;stroke-width:1.0;"/><polygon fill="none" points="152,67.38,159,47.38,166,67.38,152,67.38" style="stroke:#181818;stroke-width:1.0;"/></g><text fill="#888888" font-family="sans-serif" font-size="10" lengthAdjust="spacing" textLength="184" x="60" y="531.7559">UMLDoclet 2.1.0, PlantUML 1.2022.14</text><!--SRC=[VLFTQy8m47_VNt480qKjElPKH11bC70Ve7joFiJsR2DjKdAfeDl-zpM9QxNMzINDx-kI2mS0GAX1i1GfOm4kC6EAQQb0I85t1Gqn3n4mpVG1jXoJaEfeYZgM1Mpn8654q1eHFw8_V1nFSqNoKvpsWx5KaHUdd3mkI7ETQza2Hd0DUzO9gvLTlLYdoNeDNxQ8-Vg1J3cAevoXLVWmOnehUil53KR8TAFGXuLMN4GLRalxyFntWefXn2F1TAuO-J1HYXtcdFHeKiBZIckSwbHtQVvBgclHTfdVStod4aIefvUtQdTgf-_IjSO82jrUyl0YwwbiGMFC6NqhuTMsohXhpJB-4-cO9hUzgJ5VjzJu7LroJGbLXyda_DzwatbkQ5GtLLcMJsQAr1wDBdZtOlMCJAe0XMOxryubgfGB5jguKEQRn3N-ftb4tZOx3FJPZEpOdda94v4TZNBdEQ4BgQCm-kxtRuxHgN1nHbImbT8i7o_pcGoIOleVlA4twC5x4QSB5Extg8XBqUxy0W00]--></g></svg>