<?xml version="1.0" encoding="UTF-8" standalone="no"?><svg xmlns="http://www.w3.org/2000/svg" xmlns:xlink="http://www.w3.org/1999/xlink" contentStyleType="text/css" height="348px" preserveAspectRatio="none" style="width:215px;height:348px;background:#FFFFFF;" version="1.1" viewBox="0 0 215 348" width="215px" zoomAndPan="magnify"><defs/><g><!--class org.hmis.instituto.Equipamiento--><a href="Equipamiento.html" target="_top" title="Equipamiento.html" xlink:actuate="onRequest" xlink:href="Equipamiento.html" xlink:show="new" xlink:title="Equipamiento.html" xlink:type="simple"><g id="elem_org.hmis.instituto.Equipamiento"><rect codeLine="5" fill="#F1F1F1" height="214.6719" id="org.hmis.instituto.Equipamiento" rx="2.5" ry="2.5" style="stroke:#181818;stroke-width:0.5;" width="201" x="7" y="107"/><ellipse cx="60.25" cy="127.0938" fill="#A9DCDF" rx="11" ry="11" style="stroke:#181818;stroke-width:1.0;"/><path d="M62.4375,128.8594 L58.2969,128.8594 L57.875,129.8906 L58.2969,129.8906 Q58.9063,129.8906 59.1719,130.125 Q59.4375,130.3594 59.4375,130.75 Q59.4375,131.125 59.1719,131.3594 Q58.9063,131.5938 58.2969,131.5938 L56,131.5938 Q55.3906,131.5938 55.1406,131.3594 Q54.875,131.125 54.875,130.7344 Q54.875,130.3594 55.1563,130.125 Q55.4219,129.875 56.0469,129.8906 L58.7188,123.2344 L57.6094,123.2344 Q57,123.2344 56.7344,123 Q56.4688,122.7656 56.4688,122.375 Q56.4688,122 56.7344,121.7656 Q57,121.5313 57.6094,121.5313 L61.2813,121.5313 L64.6719,129.8906 Q65.2656,129.8906 65.4531,130.0313 Q65.8438,130.2969 65.8438,130.75 Q65.8438,131.125 65.5781,131.3594 Q65.3281,131.5938 64.7188,131.5938 L62.4219,131.5938 Q61.8125,131.5938 61.5469,131.3594 Q61.2813,131.125 61.2813,130.7344 Q61.2813,130.3594 61.5469,130.125 Q61.8125,129.8906 62.4219,129.8906 L62.8438,129.8906 L62.4375,128.8594 Z M61.7188,127.1563 L60.3594,123.7813 L58.9844,127.1563 L61.7188,127.1563 Z " fill="#000000"/><text fill="#000000" font-family="sans-serif" font-size="14" font-style="italic" lengthAdjust="spacing" textLength="86" x="80.75" y="126.5332">Equipamiento</text><text fill="#000000" font-family="sans-serif" font-size="10" font-style="italic" lengthAdjust="spacing" textLength="80" x="83.75" y="139.9902">org.hmis.instituto</text><line style="stroke:#181818;stroke-width:0.5;" x1="8" x2="207" y1="147.1875" y2="147.1875"/><rect fill="none" height="6" style="stroke:#C82930;stroke-width:1.0;" width="6" x="15" y="158.4922"/><text fill="#000000" font-family="sans-serif" font-size="14" lengthAdjust="spacing" textLength="90" x="27" y="165.7207">precio: double</text><rect fill="none" height="6" style="stroke:#C82930;stroke-width:1.0;" width="6" x="15" y="176.1016"/><text fill="#000000" font-family="sans-serif" font-size="14" lengthAdjust="spacing" textLength="63" x="27" y="183.3301">aula: Aula</text><line style="stroke:#181818;stroke-width:0.5;" x1="8" x2="207" y1="190.4063" y2="190.4063"/><ellipse cx="18" cy="204.7109" fill="#84BE84" rx="3" ry="3" style="stroke:#038048;stroke-width:1.0;"/><text fill="#000000" font-family="sans-serif" font-size="14" lengthAdjust="spacing" textLength="96" x="27" y="208.9395">Equipamiento()</text><ellipse cx="18" cy="222.3203" fill="#84BE84" rx="3" ry="3" style="stroke:#038048;stroke-width:1.0;"/><text fill="#000000" font-family="sans-serif" font-size="14" lengthAdjust="spacing" textLength="139" x="27" y="226.5488">Equipamiento(double)</text><ellipse cx="18" cy="239.9297" fill="#84BE84" rx="3" ry="3" style="stroke:#038048;stroke-width:1.0;"/><text fill="#000000" font-family="sans-serif" font-size="14" lengthAdjust="spacing" textLength="175" x="27" y="244.1582">Equipamiento(double, Aula)</text><ellipse cx="18" cy="257.5391" fill="#84BE84" rx="3" ry="3" style="stroke:#038048;stroke-width:1.0;"/><text fill="#000000" font-family="sans-serif" font-size="14" lengthAdjust="spacing" textLength="121" x="27" y="261.7676">getPrecio(): double</text><ellipse cx="18" cy="275.1484" fill="#84BE84" rx="3" ry="3" style="stroke:#038048;stroke-width:1.0;"/><text fill="#000000" font-family="sans-serif" font-size="14" lengthAdjust="spacing" textLength="146" x="27" y="279.377">setPrecio(double): void</text><ellipse cx="18" cy="292.7578" fill="#84BE84" rx="3" ry="3" style="stroke:#038048;stroke-width:1.0;"/><text fill="#000000" font-family="sans-serif" font-size="14" lengthAdjust="spacing" textLength="94" x="27" y="296.9863">getAula(): Aula</text><ellipse cx="18" cy="310.3672" fill="#84BE84" rx="3" ry="3" style="stroke:#038048;stroke-width:1.0;"/><text fill="#000000" font-family="sans-serif" font-size="14" lengthAdjust="spacing" textLength="119" x="27" y="314.5957">setAula(Aula): void</text></g></a><!--class java.lang.Object--><g id="elem_java.lang.Object"><rect codeLine="17" fill="#F1F1F1" height="40.1875" id="java.lang.Object" rx="2.5" ry="2.5" style="stroke:#181818;stroke-width:0.5;" width="76" x="69.5" y="7"/><ellipse cx="84.5" cy="27.0938" fill="#ADD1B2" rx="11" ry="11" style="stroke:#181818;stroke-width:1.0;"/><path d="M87.2656,22.9688 Q87.4219,22.75 87.6094,22.6406 Q87.7969,22.5313 88.0156,22.5313 Q88.3906,22.5313 88.625,22.7969 Q88.8594,23.0469 88.8594,23.6563 L88.8594,25.1094 Q88.8594,25.7188 88.625,25.9844 Q88.3906,26.25 88.0156,26.25 Q87.6719,26.25 87.4688,26.0469 Q87.2656,25.8594 87.1563,25.3438 Q87.1094,24.9844 86.9219,24.7969 Q86.5938,24.4219 85.9844,24.2031 Q85.375,23.9844 84.75,23.9844 Q83.9844,23.9844 83.3438,24.3125 Q82.7188,24.6406 82.2188,25.3906 Q81.7344,26.1406 81.7344,27.1719 L81.7344,28.2656 Q81.7344,29.5 82.625,30.3281 Q83.5156,31.1406 85.1094,31.1406 Q86.0469,31.1406 86.7031,30.8906 Q87.0938,30.7344 87.5156,30.2969 Q87.7813,30.0313 87.9219,29.9531 Q88.0781,29.875 88.2813,29.875 Q88.6094,29.875 88.8594,30.1406 Q89.125,30.3906 89.125,30.7344 Q89.125,31.0781 88.7813,31.4844 Q88.2813,32.0625 87.4844,32.3906 Q86.4063,32.8438 85.1094,32.8438 Q83.5938,32.8438 82.3906,32.2188 Q81.4063,31.7188 80.7188,30.6563 Q80.0313,29.5781 80.0313,28.2969 L80.0313,27.1406 Q80.0313,25.8125 80.6406,24.6719 Q81.2656,23.5156 82.3594,22.9063 Q83.4531,22.2813 84.6875,22.2813 Q85.4219,22.2813 86.0625,22.4531 Q86.7188,22.6094 87.2656,22.9688 Z " fill="#000000"/><text fill="#000000" font-family="sans-serif" font-size="14" lengthAdjust="spacing" textLength="41" x="100" y="26.5332">Object</text><text fill="#000000" font-family="sans-serif" font-size="10" lengthAdjust="spacing" textLength="44" x="98.5" y="39.9902">java.lang</text></g><!--reverse link java.lang.Object to org.hmis.instituto.Equipamiento--><g id="link_java.lang.Object_org.hmis.instituto.Equipamiento"><path codeLine="19" d="M107.5,67.36 C107.5,79.17 107.5,92.74 107.5,106.74 " fill="none" id="java.lang.Object-backto-org.hmis.instituto.Equipamiento" style="stroke:#181818;stroke-width:1.0;"/><polygon fill="none" points="100.5,67.15,107.5,47.15,114.5,67.15,100.5,67.15" style="stroke:#181818;stroke-width:1.0;"/></g><text fill="#888888" font-family="sans-serif" font-size="10" lengthAdjust="spacing" textLength="184" x="8.5" y="338.0527">UMLDoclet 2.1.0, PlantUML 1.2022.14</text><!--SRC=[XP9DQyCm38Rl-nMYC4XfQzgnKoY5mNRRM67irFMW9chZujYPfHJszT_dVD2bATjyiAr7qYiX6m20IS1YJbnWGazKe4Tn7gopT17SaEcKWF92tc2hoQJSfpb9vWAkEMvOF2O2YK5c6CnPlrCykrxSlPQwm5oJ5VTYMpnTEBzJMQvPQSkYfHGt06Gunweh0AjLrrIPv6QzXe-wXMfD2a-9TZ6ahjmO-k5O6epX9kn7DkfAHSDVU2FqjtTS2tTYTYJBkf5eUDRAY8_ELZk6WzFfINQbL-MUDiojewxMoVfgtg0_-iVDdXBf37sF1rG6xQwUzT5IJM0ZqgSm_vnC_dkNjdwuaeUjSzNn_71_wn8JVjcLcgdf69P1LGA5omDvriv6msy0]--></g></svg>