<?xml version="1.0" encoding="UTF-8" standalone="no"?><svg xmlns="http://www.w3.org/2000/svg" xmlns:xlink="http://www.w3.org/1999/xlink" contentStyleType="text/css" height="383px" preserveAspectRatio="none" style="width:258px;height:383px;background:#FFFFFF;" version="1.1" viewBox="0 0 258 383" width="258px" zoomAndPan="magnify"><defs/><g><!--class org.hmis.instituto.Instituto--><a href="Instituto.html" target="_top" title="Instituto.html" xlink:actuate="onRequest" xlink:href="Instituto.html" xlink:show="new" xlink:title="Instituto.html" xlink:type="simple"><g id="elem_org.hmis.instituto.Instituto"><rect codeLine="5" fill="#F1F1F1" height="249.8906" id="org.hmis.instituto.Instituto" rx="2.5" ry="2.5" style="stroke:#181818;stroke-width:0.5;" width="244" x="7" y="107"/><ellipse cx="84.75" cy="127.0938" fill="#ADD1B2" rx="11" ry="11" style="stroke:#181818;stroke-width:1.0;"/><path d="M87.5156,122.9688 Q87.6719,122.75 87.8594,122.6406 Q88.0469,122.5313 88.2656,122.5313 Q88.6406,122.5313 88.875,122.7969 Q89.1094,123.0469 89.1094,123.6563 L89.1094,125.1094 Q89.1094,125.7188 88.875,125.9844 Q88.6406,126.25 88.2656,126.25 Q87.9219,126.25 87.7188,126.0469 Q87.5156,125.8594 87.4063,125.3438 Q87.3594,124.9844 87.1719,124.7969 Q86.8438,124.4219 86.2344,124.2031 Q85.625,123.9844 85,123.9844 Q84.2344,123.9844 83.5938,124.3125 Q82.9688,124.6406 82.4688,125.3906 Q81.9844,126.1406 81.9844,127.1719 L81.9844,128.2656 Q81.9844,129.5 82.875,130.3281 Q83.7656,131.1406 85.3594,131.1406 Q86.2969,131.1406 86.9531,130.8906 Q87.3438,130.7344 87.7656,130.2969 Q88.0313,130.0313 88.1719,129.9531 Q88.3281,129.875 88.5313,129.875 Q88.8594,129.875 89.1094,130.1406 Q89.375,130.3906 89.375,130.7344 Q89.375,131.0781 89.0313,131.4844 Q88.5313,132.0625 87.7344,132.3906 Q86.6563,132.8438 85.3594,132.8438 Q83.8438,132.8438 82.6406,132.2188 Q81.6563,131.7188 80.9688,130.6563 Q80.2813,129.5781 80.2813,128.2969 L80.2813,127.1406 Q80.2813,125.8125 80.8906,124.6719 Q81.5156,123.5156 82.6094,122.9063 Q83.7031,122.2813 84.9375,122.2813 Q85.6719,122.2813 86.3125,122.4531 Q86.9688,122.6094 87.5156,122.9688 Z " fill="#000000"/><text fill="#000000" font-family="sans-serif" font-size="14" lengthAdjust="spacing" textLength="49" x="120.75" y="126.5332">Instituto</text><text fill="#000000" font-family="sans-serif" font-size="10" lengthAdjust="spacing" textLength="80" x="105.25" y="139.9902">org.hmis.instituto</text><line style="stroke:#181818;stroke-width:0.5;" x1="8" x2="250" y1="147.1875" y2="147.1875"/><rect fill="none" height="6" style="stroke:#C82930;stroke-width:1.0;" width="6" x="15" y="158.4922"/><text fill="#000000" font-family="sans-serif" font-size="14" lengthAdjust="spacing" textLength="93" x="27" y="165.7207">nombre: String</text><rect fill="none" height="6" style="stroke:#C82930;stroke-width:1.0;" width="6" x="15" y="176.1016"/><text fill="#000000" font-family="sans-serif" font-size="14" lengthAdjust="spacing" textLength="102" x="27" y="183.3301">direccion: String</text><rect fill="none" height="6" style="stroke:#C82930;stroke-width:1.0;" width="6" x="15" y="193.7109"/><text fill="#000000" font-family="sans-serif" font-size="14" lengthAdjust="spacing" textLength="160" x="27" y="200.9395">cursos: ArrayList&lt;Curso&gt;</text><line style="stroke:#181818;stroke-width:0.5;" x1="8" x2="250" y1="208.0156" y2="208.0156"/><ellipse cx="18" cy="222.3203" fill="#84BE84" rx="3" ry="3" style="stroke:#038048;stroke-width:1.0;"/><text fill="#000000" font-family="sans-serif" font-size="14" lengthAdjust="spacing" textLength="124" x="27" y="226.5488">getNombre(): String</text><ellipse cx="18" cy="239.9297" fill="#84BE84" rx="3" ry="3" style="stroke:#038048;stroke-width:1.0;"/><text fill="#000000" font-family="sans-serif" font-size="14" lengthAdjust="spacing" textLength="149" x="27" y="244.1582">setNombre(String): void</text><ellipse cx="18" cy="257.5391" fill="#84BE84" rx="3" ry="3" style="stroke:#038048;stroke-width:1.0;"/><text fill="#000000" font-family="sans-serif" font-size="14" lengthAdjust="spacing" textLength="134" x="27" y="261.7676">getDireccion(): String</text><ellipse cx="18" cy="275.1484" fill="#84BE84" rx="3" ry="3" style="stroke:#038048;stroke-width:1.0;"/><text fill="#000000" font-family="sans-serif" font-size="14" lengthAdjust="spacing" textLength="159" x="27" y="279.377">setDireccion(String): void</text><ellipse cx="18" cy="292.7578" fill="#84BE84" rx="3" ry="3" style="stroke:#038048;stroke-width:1.0;"/><text fill="#000000" font-family="sans-serif" font-size="14" lengthAdjust="spacing" textLength="193" x="27" y="296.9863">getCursos(): ArrayList&lt;Curso&gt;</text><ellipse cx="18" cy="310.3672" fill="#84BE84" rx="3" ry="3" style="stroke:#038048;stroke-width:1.0;"/><text fill="#000000" font-family="sans-serif" font-size="14" lengthAdjust="spacing" textLength="218" x="27" y="314.5957">setCursos(ArrayList&lt;Curso&gt;): void</text><ellipse cx="18" cy="327.9766" fill="#84BE84" rx="3" ry="3" style="stroke:#038048;stroke-width:1.0;"/><text fill="#000000" font-family="sans-serif" font-size="14" lengthAdjust="spacing" textLength="104" x="27" y="332.2051">toString(): String</text><ellipse cx="18" cy="345.5859" fill="#84BE84" rx="3" ry="3" style="stroke:#038048;stroke-width:1.0;"/><text fill="#000000" font-family="sans-serif" font-size="14" lengthAdjust="spacing" textLength="152" x="27" y="349.8145">equals(Object): boolean</text></g></a><!--class java.lang.Object--><g id="elem_java.lang.Object"><rect codeLine="19" fill="#F1F1F1" height="40.1875" id="java.lang.Object" rx="2.5" ry="2.5" style="stroke:#181818;stroke-width:0.5;" width="76" x="91" y="7"/><ellipse cx="106" cy="27.0938" fill="#ADD1B2" rx="11" ry="11" style="stroke:#181818;stroke-width:1.0;"/><path d="M108.7656,22.9688 Q108.9219,22.75 109.1094,22.6406 Q109.2969,22.5313 109.5156,22.5313 Q109.8906,22.5313 110.125,22.7969 Q110.3594,23.0469 110.3594,23.6563 L110.3594,25.1094 Q110.3594,25.7188 110.125,25.9844 Q109.8906,26.25 109.5156,26.25 Q109.1719,26.25 108.9688,26.0469 Q108.7656,25.8594 108.6563,25.3438 Q108.6094,24.9844 108.4219,24.7969 Q108.0938,24.4219 107.4844,24.2031 Q106.875,23.9844 106.25,23.9844 Q105.4844,23.9844 104.8438,24.3125 Q104.2188,24.6406 103.7188,25.3906 Q103.2344,26.1406 103.2344,27.1719 L103.2344,28.2656 Q103.2344,29.5 104.125,30.3281 Q105.0156,31.1406 106.6094,31.1406 Q107.5469,31.1406 108.2031,30.8906 Q108.5938,30.7344 109.0156,30.2969 Q109.2813,30.0313 109.4219,29.9531 Q109.5781,29.875 109.7813,29.875 Q110.1094,29.875 110.3594,30.1406 Q110.625,30.3906 110.625,30.7344 Q110.625,31.0781 110.2813,31.4844 Q109.7813,32.0625 108.9844,32.3906 Q107.9063,32.8438 106.6094,32.8438 Q105.0938,32.8438 103.8906,32.2188 Q102.9063,31.7188 102.2188,30.6563 Q101.5313,29.5781 101.5313,28.2969 L101.5313,27.1406 Q101.5313,25.8125 102.1406,24.6719 Q102.7656,23.5156 103.8594,22.9063 Q104.9531,22.2813 106.1875,22.2813 Q106.9219,22.2813 107.5625,22.4531 Q108.2188,22.6094 108.7656,22.9688 Z " fill="#000000"/><text fill="#000000" font-family="sans-serif" font-size="14" lengthAdjust="spacing" textLength="41" x="121.5" y="26.5332">Object</text><text fill="#000000" font-family="sans-serif" font-size="10" lengthAdjust="spacing" textLength="44" x="120" y="39.9902">java.lang</text></g><!--reverse link java.lang.Object to org.hmis.instituto.Instituto--><g id="link_java.lang.Object_org.hmis.instituto.Instituto"><path codeLine="21" d="M129,67.23 C129,79.03 129,92.67 129,106.93 " fill="none" id="java.lang.Object-backto-org.hmis.instituto.Instituto" style="stroke:#181818;stroke-width:1.0;"/><polygon fill="none" points="122,67.1,129,47.1,136,67.1,122,67.1" style="stroke:#181818;stroke-width:1.0;"/></g><text fill="#888888" font-family="sans-serif" font-size="10" lengthAdjust="spacing" textLength="184" x="30" y="373.2715">UMLDoclet 2.1.0, PlantUML 1.2022.14</text><!--SRC=[VP9DQy9048Rl_HM3KB1O5oqzYGHAlHJi1qXFriEQZCbAicDtHi5-_FTkDXfReyqboVE-yywmim00Z09M5yWh7UC4Lzff8GUMB5vu6JAJ862naYqi3EO97zC29IEF0uzppGoj8PiF7FHlemVBOcGjz6Pth1UHIrLM65PcBxP0CpInggjXEgs_LIP5Ffl1PsXOFbrBnTpX02RYZ4qFF34EuzYGRKhnsZ7n0EwSqzknOHdUboIg7PqKvIdajgyQvHsknKhnbWsPv4_rQD_zJC11FvyHXk8ouFoWNDkEFOr4eQhLgOdmVQrpRZ_FbnYBr-T4EMeR3D-djrjvVwrsgJTQvTgcOQFrdwgCLSWnXU5Nj_llzdVDqGewM12LhzV7yOZYt5_U6zLNlMjuyP7YALnkq74uzHy0]--></g></svg>