<?xml version="1.0" encoding="UTF-8" standalone="no"?><svg xmlns="http://www.w3.org/2000/svg" xmlns:xlink="http://www.w3.org/1999/xlink" contentStyleType="text/css" height="260px" preserveAspectRatio="none" style="width:192px;height:260px;background:#FFFFFF;" version="1.1" viewBox="0 0 192 260" width="192px" zoomAndPan="magnify"><defs/><g><!--class org.hmis.instituto.Mesa--><a href="Mesa.html" target="_top" title="Mesa.html" xlink:actuate="onRequest" xlink:href="Mesa.html" xlink:show="new" xlink:title="Mesa.html" xlink:type="simple"><g id="elem_org.hmis.instituto.Mesa"><rect codeLine="5" fill="#F1F1F1" height="126.625" id="org.hmis.instituto.Mesa" rx="2.5" ry="2.5" style="stroke:#181818;stroke-width:0.5;" width="172" x="13" y="107"/><ellipse cx="55" cy="127.0938" fill="#ADD1B2" rx="11" ry="11" style="stroke:#181818;stroke-width:1.0;"/><path d="M57.7656,122.9688 Q57.9219,122.75 58.1094,122.6406 Q58.2969,122.5313 58.5156,122.5313 Q58.8906,122.5313 59.125,122.7969 Q59.3594,123.0469 59.3594,123.6563 L59.3594,125.1094 Q59.3594,125.7188 59.125,125.9844 Q58.8906,126.25 58.5156,126.25 Q58.1719,126.25 57.9688,126.0469 Q57.7656,125.8594 57.6563,125.3438 Q57.6094,124.9844 57.4219,124.7969 Q57.0938,124.4219 56.4844,124.2031 Q55.875,123.9844 55.25,123.9844 Q54.4844,123.9844 53.8438,124.3125 Q53.2188,124.6406 52.7188,125.3906 Q52.2344,126.1406 52.2344,127.1719 L52.2344,128.2656 Q52.2344,129.5 53.125,130.3281 Q54.0156,131.1406 55.6094,131.1406 Q56.5469,131.1406 57.2031,130.8906 Q57.5938,130.7344 58.0156,130.2969 Q58.2813,130.0313 58.4219,129.9531 Q58.5781,129.875 58.7813,129.875 Q59.1094,129.875 59.3594,130.1406 Q59.625,130.3906 59.625,130.7344 Q59.625,131.0781 59.2813,131.4844 Q58.7813,132.0625 57.9844,132.3906 Q56.9063,132.8438 55.6094,132.8438 Q54.0938,132.8438 52.8906,132.2188 Q51.9063,131.7188 51.2188,130.6563 Q50.5313,129.5781 50.5313,128.2969 L50.5313,127.1406 Q50.5313,125.8125 51.1406,124.6719 Q51.7656,123.5156 52.8594,122.9063 Q53.9531,122.2813 55.1875,122.2813 Q55.9219,122.2813 56.5625,122.4531 Q57.2188,122.6094 57.7656,122.9688 Z " fill="#000000"/><text fill="#000000" font-family="sans-serif" font-size="14" lengthAdjust="spacing" textLength="34" x="98" y="126.5332">Mesa</text><text fill="#000000" font-family="sans-serif" font-size="10" lengthAdjust="spacing" textLength="80" x="75" y="139.9902">org.hmis.instituto</text><line style="stroke:#181818;stroke-width:0.5;" x1="14" x2="184" y1="147.1875" y2="147.1875"/><rect fill="none" height="6" style="stroke:#C82930;stroke-width:1.0;" width="6" x="21" y="158.4922"/><text fill="#000000" font-family="sans-serif" font-size="14" lengthAdjust="spacing" textLength="88" x="33" y="165.7207">capacidad: int</text><line style="stroke:#181818;stroke-width:0.5;" x1="14" x2="184" y1="172.7969" y2="172.7969"/><ellipse cx="24" cy="187.1016" fill="#84BE84" rx="3" ry="3" style="stroke:#038048;stroke-width:1.0;"/><text fill="#000000" font-family="sans-serif" font-size="14" lengthAdjust="spacing" textLength="59" x="33" y="191.3301">Mesa(int)</text><ellipse cx="24" cy="204.7109" fill="#84BE84" rx="3" ry="3" style="stroke:#038048;stroke-width:1.0;"/><text fill="#000000" font-family="sans-serif" font-size="14" lengthAdjust="spacing" textLength="121" x="33" y="208.9395">getCapacidad(): int</text><ellipse cx="24" cy="222.3203" fill="#84BE84" rx="3" ry="3" style="stroke:#038048;stroke-width:1.0;"/><text fill="#000000" font-family="sans-serif" font-size="14" lengthAdjust="spacing" textLength="146" x="33" y="226.5488">setCapacidad(int): void</text></g></a><!--class org.hmis.instituto.Equipamiento--><a href="Equipamiento.html" target="_top" title="Equipamiento.html" xlink:actuate="onRequest" xlink:href="Equipamiento.html" xlink:show="new" xlink:title="Equipamiento.html" xlink:type="simple"><g id="elem_org.hmis.instituto.Equipamiento"><rect codeLine="12" fill="#F1F1F1" height="40.1875" id="org.hmis.instituto.Equipamiento" rx="2.5" ry="2.5" style="stroke:#181818;stroke-width:0.5;" width="118" x="40" y="7"/><ellipse cx="55" cy="27.0938" fill="#A9DCDF" rx="11" ry="11" style="stroke:#181818;stroke-width:1.0;"/><path d="M57.1875,28.8594 L53.0469,28.8594 L52.625,29.8906 L53.0469,29.8906 Q53.6563,29.8906 53.9219,30.125 Q54.1875,30.3594 54.1875,30.75 Q54.1875,31.125 53.9219,31.3594 Q53.6563,31.5938 53.0469,31.5938 L50.75,31.5938 Q50.1406,31.5938 49.8906,31.3594 Q49.625,31.125 49.625,30.7344 Q49.625,30.3594 49.9063,30.125 Q50.1719,29.875 50.7969,29.8906 L53.4688,23.2344 L52.3594,23.2344 Q51.75,23.2344 51.4844,23 Q51.2188,22.7656 51.2188,22.375 Q51.2188,22 51.4844,21.7656 Q51.75,21.5313 52.3594,21.5313 L56.0313,21.5313 L59.4219,29.8906 Q60.0156,29.8906 60.2031,30.0313 Q60.5938,30.2969 60.5938,30.75 Q60.5938,31.125 60.3281,31.3594 Q60.0781,31.5938 59.4688,31.5938 L57.1719,31.5938 Q56.5625,31.5938 56.2969,31.3594 Q56.0313,31.125 56.0313,30.7344 Q56.0313,30.3594 56.2969,30.125 Q56.5625,29.8906 57.1719,29.8906 L57.5938,29.8906 L57.1875,28.8594 Z M56.4688,27.1563 L55.1094,23.7813 L53.7344,27.1563 L56.4688,27.1563 Z " fill="#000000"/><text fill="#000000" font-family="sans-serif" font-size="14" font-style="italic" lengthAdjust="spacing" textLength="86" x="69" y="26.5332">Equipamiento</text><text fill="#000000" font-family="sans-serif" font-size="10" font-style="italic" lengthAdjust="spacing" textLength="80" x="72" y="39.9902">org.hmis.instituto</text></g></a><!--reverse link org.hmis.instituto.Equipamiento to org.hmis.instituto.Mesa--><g id="link_org.hmis.instituto.Equipamiento_org.hmis.instituto.Mesa"><path codeLine="14" d="M99,67.1 C99,79.43 99,93.38 99,106.92 " fill="none" id="org.hmis.instituto.Equipamiento-backto-org.hmis.instituto.Mesa" style="stroke:#181818;stroke-width:1.0;"/><polygon fill="none" points="92,67.08,99,47.08,106,67.08,92,67.08" style="stroke:#181818;stroke-width:1.0;"/></g><text fill="#888888" font-family="sans-serif" font-size="10" lengthAdjust="spacing" textLength="184" x="0" y="250.0059">UMLDoclet 2.1.0, PlantUML 1.2022.14</text><!--SRC=[dP5DImD138Rl_efG47RH7LhnL4elwis289vg3t4txGPsPjP9Ml3hlpkpNNLf4S6vX3nvCvDt0W0WfE3GahHOqZsr651z0ESTdSGor5mHa6tr1TPCJIM7r9BMFkAEbmsAm6Wc_4hJoULyGOAFha_7SnysfhOiXfqewrRz253W69lK2Cjb2gPMswnMyDQza4vHOfoMAwocm4w_-LcIPv7aFsX3UlMbpl83lGoBgMyAEyzL9_ZOEy8dqO2b7bcxUTvoYvR9gV-NnU45qUemxItl9_YhTVPU5BzzOR-LgAC0Q-zJU5ZSNlkoYNk_C1CpFeUx1fr62gSx2iBUPVad]--></g></svg>