<?xml version="1.0" encoding="UTF-8" standalone="no"?><svg xmlns="http://www.w3.org/2000/svg" xmlns:xlink="http://www.w3.org/1999/xlink" contentStyleType="text/css" height="365px" preserveAspectRatio="none" style="width:252px;height:365px;background:#FFFFFF;" version="1.1" viewBox="0 0 252 365" width="252px" zoomAndPan="magnify"><defs/><g><!--class org.hmis.instituto.Ordenador--><a href="Ordenador.html" target="_top" title="Ordenador.html" xlink:actuate="onRequest" xlink:href="Ordenador.html" xlink:show="new" xlink:title="Ordenador.html" xlink:type="simple"><g id="elem_org.hmis.instituto.Ordenador"><rect codeLine="5" fill="#F1F1F1" height="232.2813" id="org.hmis.instituto.Ordenador" rx="2.5" ry="2.5" style="stroke:#181818;stroke-width:0.5;" width="238" x="7" y="107"/><ellipse cx="81.75" cy="127.0938" fill="#ADD1B2" rx="11" ry="11" style="stroke:#181818;stroke-width:1.0;"/><path d="M84.5156,122.9688 Q84.6719,122.75 84.8594,122.6406 Q85.0469,122.5313 85.2656,122.5313 Q85.6406,122.5313 85.875,122.7969 Q86.1094,123.0469 86.1094,123.6563 L86.1094,125.1094 Q86.1094,125.7188 85.875,125.9844 Q85.6406,126.25 85.2656,126.25 Q84.9219,126.25 84.7188,126.0469 Q84.5156,125.8594 84.4063,125.3438 Q84.3594,124.9844 84.1719,124.7969 Q83.8438,124.4219 83.2344,124.2031 Q82.625,123.9844 82,123.9844 Q81.2344,123.9844 80.5938,124.3125 Q79.9688,124.6406 79.4688,125.3906 Q78.9844,126.1406 78.9844,127.1719 L78.9844,128.2656 Q78.9844,129.5 79.875,130.3281 Q80.7656,131.1406 82.3594,131.1406 Q83.2969,131.1406 83.9531,130.8906 Q84.3438,130.7344 84.7656,130.2969 Q85.0313,130.0313 85.1719,129.9531 Q85.3281,129.875 85.5313,129.875 Q85.8594,129.875 86.1094,130.1406 Q86.375,130.3906 86.375,130.7344 Q86.375,131.0781 86.0313,131.4844 Q85.5313,132.0625 84.7344,132.3906 Q83.6563,132.8438 82.3594,132.8438 Q80.8438,132.8438 79.6406,132.2188 Q78.6563,131.7188 77.9688,130.6563 Q77.2813,129.5781 77.2813,128.2969 L77.2813,127.1406 Q77.2813,125.8125 77.8906,124.6719 Q78.5156,123.5156 79.6094,122.9063 Q80.7031,122.2813 81.9375,122.2813 Q82.6719,122.2813 83.3125,122.4531 Q83.9688,122.6094 84.5156,122.9688 Z " fill="#000000"/><text fill="#000000" font-family="sans-serif" font-size="14" lengthAdjust="spacing" textLength="69" x="107.75" y="126.5332">Ordenador</text><text fill="#000000" font-family="sans-serif" font-size="10" lengthAdjust="spacing" textLength="80" x="102.25" y="139.9902">org.hmis.instituto</text><line style="stroke:#181818;stroke-width:0.5;" x1="8" x2="244" y1="147.1875" y2="147.1875"/><rect fill="none" height="6" style="stroke:#C82930;stroke-width:1.0;" width="6" x="15" y="158.4922"/><text fill="#000000" font-family="sans-serif" font-size="14" lengthAdjust="spacing" textLength="155" x="27" y="165.7207">sistemaOperativo: String</text><rect fill="none" height="6" style="stroke:#C82930;stroke-width:1.0;" width="6" x="15" y="176.1016"/><text fill="#000000" font-family="sans-serif" font-size="14" lengthAdjust="spacing" textLength="84" x="27" y="183.3301">marca: String</text><line style="stroke:#181818;stroke-width:0.5;" x1="8" x2="244" y1="190.4063" y2="190.4063"/><ellipse cx="18" cy="204.7109" fill="#84BE84" rx="3" ry="3" style="stroke:#038048;stroke-width:1.0;"/><text fill="#000000" font-family="sans-serif" font-size="14" lengthAdjust="spacing" textLength="79" x="27" y="208.9395">Ordenador()</text><ellipse cx="18" cy="222.3203" fill="#84BE84" rx="3" ry="3" style="stroke:#038048;stroke-width:1.0;"/><text fill="#000000" font-family="sans-serif" font-size="14" lengthAdjust="spacing" textLength="161" x="27" y="226.5488">Ordenador(String, String)</text><ellipse cx="18" cy="239.9297" fill="#84BE84" rx="3" ry="3" style="stroke:#038048;stroke-width:1.0;"/><text fill="#000000" font-family="sans-serif" font-size="14" lengthAdjust="spacing" textLength="187" x="27" y="244.1582">getSistemaOperativo(): String</text><ellipse cx="18" cy="257.5391" fill="#84BE84" rx="3" ry="3" style="stroke:#038048;stroke-width:1.0;"/><text fill="#000000" font-family="sans-serif" font-size="14" lengthAdjust="spacing" textLength="212" x="27" y="261.7676">setSistemaOperativo(String): void</text><ellipse cx="18" cy="275.1484" fill="#84BE84" rx="3" ry="3" style="stroke:#038048;stroke-width:1.0;"/><text fill="#000000" font-family="sans-serif" font-size="14" lengthAdjust="spacing" textLength="114" x="27" y="279.377">getMarca(): String</text><ellipse cx="18" cy="292.7578" fill="#84BE84" rx="3" ry="3" style="stroke:#038048;stroke-width:1.0;"/><text fill="#000000" font-family="sans-serif" font-size="14" lengthAdjust="spacing" textLength="139" x="27" y="296.9863">setMarca(String): void</text><ellipse cx="18" cy="310.3672" fill="#84BE84" rx="3" ry="3" style="stroke:#038048;stroke-width:1.0;"/><text fill="#000000" font-family="sans-serif" font-size="14" lengthAdjust="spacing" textLength="104" x="27" y="314.5957">toString(): String</text><ellipse cx="18" cy="327.9766" fill="#84BE84" rx="3" ry="3" style="stroke:#038048;stroke-width:1.0;"/><text fill="#000000" font-family="sans-serif" font-size="14" lengthAdjust="spacing" textLength="152" x="27" y="332.2051">equals(Object): boolean</text></g></a><!--class org.hmis.instituto.Equipamiento--><a href="Equipamiento.html" target="_top" title="Equipamiento.html" xlink:actuate="onRequest" xlink:href="Equipamiento.html" xlink:show="new" xlink:title="Equipamiento.html" xlink:type="simple"><g id="elem_org.hmis.instituto.Equipamiento"><rect codeLine="18" fill="#F1F1F1" height="40.1875" id="org.hmis.instituto.Equipamiento" rx="2.5" ry="2.5" style="stroke:#181818;stroke-width:0.5;" width="118" x="67" y="7"/><ellipse cx="82" cy="27.0938" fill="#A9DCDF" rx="11" ry="11" style="stroke:#181818;stroke-width:1.0;"/><path d="M84.1875,28.8594 L80.0469,28.8594 L79.625,29.8906 L80.0469,29.8906 Q80.6563,29.8906 80.9219,30.125 Q81.1875,30.3594 81.1875,30.75 Q81.1875,31.125 80.9219,31.3594 Q80.6563,31.5938 80.0469,31.5938 L77.75,31.5938 Q77.1406,31.5938 76.8906,31.3594 Q76.625,31.125 76.625,30.7344 Q76.625,30.3594 76.9063,30.125 Q77.1719,29.875 77.7969,29.8906 L80.4688,23.2344 L79.3594,23.2344 Q78.75,23.2344 78.4844,23 Q78.2188,22.7656 78.2188,22.375 Q78.2188,22 78.4844,21.7656 Q78.75,21.5313 79.3594,21.5313 L83.0313,21.5313 L86.4219,29.8906 Q87.0156,29.8906 87.2031,30.0313 Q87.5938,30.2969 87.5938,30.75 Q87.5938,31.125 87.3281,31.3594 Q87.0781,31.5938 86.4688,31.5938 L84.1719,31.5938 Q83.5625,31.5938 83.2969,31.3594 Q83.0313,31.125 83.0313,30.7344 Q83.0313,30.3594 83.2969,30.125 Q83.5625,29.8906 84.1719,29.8906 L84.5938,29.8906 L84.1875,28.8594 Z M83.4688,27.1563 L82.1094,23.7813 L80.7344,27.1563 L83.4688,27.1563 Z " fill="#000000"/><text fill="#000000" font-family="sans-serif" font-size="14" font-style="italic" lengthAdjust="spacing" textLength="86" x="96" y="26.5332">Equipamiento</text><text fill="#000000" font-family="sans-serif" font-size="10" font-style="italic" lengthAdjust="spacing" textLength="80" x="99" y="39.9902">org.hmis.instituto</text></g></a><!--reverse link org.hmis.instituto.Equipamiento to org.hmis.instituto.Ordenador--><g id="link_org.hmis.instituto.Equipamiento_org.hmis.instituto.Ordenador"><path codeLine="20" d="M126,67.45 C126,79.23 126,92.78 126,106.86 " fill="none" id="org.hmis.instituto.Equipamiento-backto-org.hmis.instituto.Ordenador" style="stroke:#181818;stroke-width:1.0;"/><polygon fill="none" points="119,67.31,126,47.31,133,67.31,119,67.31" style="stroke:#181818;stroke-width:1.0;"/></g><text fill="#888888" font-family="sans-serif" font-size="10" lengthAdjust="spacing" textLength="184" x="27" y="355.6621">UMLDoclet 2.1.0, PlantUML 1.2022.14</text><!--SRC=[dL9DQm8n4BttLmo5mafrqTAJYAVsLh4WFLaFu-xefYIPDJCA_VhlZUvYhQijD9SaRzvxC_060418mQCZAJ6Z2PKOK3c0PqyNiGo5oGd8bVeA2qCsbsFKaHOSuHsUMHI1ou6OD-htReVZa9F7dCEphx7kaCCoBPoHr7XHeslbIq219fpkrJ2TxjzfeSxEPl2-QxWz7J6Yv71SKXpURBWF4mt6BxyP3aE63VXwRvgqJe4LlLtB3YXBqibHpwJLj9SJjDgh3nis-G_7qNR6CpPLxOnMkIgSqj9gZLQIyVo5CetrERCbz3l2PvKPpaK3Pje8xtwrDYKwGrxvN_aT6iG83xzrYjK4Vqa77vtEh_jHBryaKu05y_Pw6ZtSSMRZUj-alRJRXaUBNYCALniAOjWdhIy0]--></g></svg>