<?xml version="1.0" encoding="UTF-8" standalone="no"?><svg xmlns="http://www.w3.org/2000/svg" xmlns:xlink="http://www.w3.org/1999/xlink" contentStyleType="text/css" height="471px" preserveAspectRatio="none" style="width:275px;height:471px;background:#FFFFFF;" version="1.1" viewBox="0 0 275 471" width="275px" zoomAndPan="magnify"><defs/><g><!--class org.hmis.instituto.Persona--><a href="Persona.html" target="_top" title="Persona.html" xlink:actuate="onRequest" xlink:href="Persona.html" xlink:show="new" xlink:title="Persona.html" xlink:type="simple"><g id="elem_org.hmis.instituto.Persona"><rect codeLine="5" fill="#F1F1F1" height="337.9375" id="org.hmis.instituto.Persona" rx="2.5" ry="2.5" style="stroke:#181818;stroke-width:0.5;" width="261" x="7" y="107"/><ellipse cx="93.25" cy="127.0938" fill="#ADD1B2" rx="11" ry="11" style="stroke:#181818;stroke-width:1.0;"/><path d="M96.0156,122.9688 Q96.1719,122.75 96.3594,122.6406 Q96.5469,122.5313 96.7656,122.5313 Q97.1406,122.5313 97.375,122.7969 Q97.6094,123.0469 97.6094,123.6563 L97.6094,125.1094 Q97.6094,125.7188 97.375,125.9844 Q97.1406,126.25 96.7656,126.25 Q96.4219,126.25 96.2188,126.0469 Q96.0156,125.8594 95.9063,125.3438 Q95.8594,124.9844 95.6719,124.7969 Q95.3438,124.4219 94.7344,124.2031 Q94.125,123.9844 93.5,123.9844 Q92.7344,123.9844 92.0938,124.3125 Q91.4688,124.6406 90.9688,125.3906 Q90.4844,126.1406 90.4844,127.1719 L90.4844,128.2656 Q90.4844,129.5 91.375,130.3281 Q92.2656,131.1406 93.8594,131.1406 Q94.7969,131.1406 95.4531,130.8906 Q95.8438,130.7344 96.2656,130.2969 Q96.5313,130.0313 96.6719,129.9531 Q96.8281,129.875 97.0313,129.875 Q97.3594,129.875 97.6094,130.1406 Q97.875,130.3906 97.875,130.7344 Q97.875,131.0781 97.5313,131.4844 Q97.0313,132.0625 96.2344,132.3906 Q95.1563,132.8438 93.8594,132.8438 Q92.3438,132.8438 91.1406,132.2188 Q90.1563,131.7188 89.4688,130.6563 Q88.7813,129.5781 88.7813,128.2969 L88.7813,127.1406 Q88.7813,125.8125 89.3906,124.6719 Q90.0156,123.5156 91.1094,122.9063 Q92.2031,122.2813 93.4375,122.2813 Q94.1719,122.2813 94.8125,122.4531 Q95.4688,122.6094 96.0156,122.9688 Z " fill="#000000"/><text fill="#000000" font-family="sans-serif" font-size="14" lengthAdjust="spacing" textLength="53" x="127.25" y="126.5332">Persona</text><text fill="#000000" font-family="sans-serif" font-size="10" lengthAdjust="spacing" textLength="80" x="113.75" y="139.9902">org.hmis.instituto</text><line style="stroke:#181818;stroke-width:0.5;" x1="8" x2="267" y1="147.1875" y2="147.1875"/><rect fill="none" height="6" style="stroke:#C82930;stroke-width:1.0;" width="6" x="15" y="158.4922"/><text fill="#000000" font-family="sans-serif" font-size="14" lengthAdjust="spacing" textLength="93" x="27" y="165.7207">nombre: String</text><rect fill="none" height="6" style="stroke:#C82930;stroke-width:1.0;" width="6" x="15" y="176.1016"/><text fill="#000000" font-family="sans-serif" font-size="14" lengthAdjust="spacing" textLength="101" x="27" y="183.3301">apellidos: String</text><rect fill="none" height="6" style="stroke:#C82930;stroke-width:1.0;" width="6" x="15" y="193.7109"/><text fill="#000000" font-family="sans-serif" font-size="14" lengthAdjust="spacing" textLength="64" x="27" y="200.9395">dni: String</text><rect fill="none" height="6" style="stroke:#C82930;stroke-width:1.0;" width="6" x="15" y="211.3203"/><text fill="#000000" font-family="sans-serif" font-size="14" lengthAdjust="spacing" textLength="78" x="27" y="218.5488">email: String</text><line style="stroke:#181818;stroke-width:0.5;" x1="8" x2="267" y1="225.625" y2="225.625"/><ellipse cx="18" cy="239.9297" fill="#84BE84" rx="3" ry="3" style="stroke:#038048;stroke-width:1.0;"/><text fill="#000000" font-family="sans-serif" font-size="14" lengthAdjust="spacing" textLength="63" x="27" y="244.1582">Persona()</text><ellipse cx="18" cy="257.5391" fill="#84BE84" rx="3" ry="3" style="stroke:#038048;stroke-width:1.0;"/><text fill="#000000" font-family="sans-serif" font-size="14" lengthAdjust="spacing" textLength="235" x="27" y="261.7676">Persona(String, String, String, String)</text><ellipse cx="18" cy="275.1484" fill="#84BE84" rx="3" ry="3" style="stroke:#038048;stroke-width:1.0;"/><text fill="#000000" font-family="sans-serif" font-size="14" lengthAdjust="spacing" textLength="124" x="27" y="279.377">getNombre(): String</text><ellipse cx="18" cy="292.7578" fill="#84BE84" rx="3" ry="3" style="stroke:#038048;stroke-width:1.0;"/><text fill="#000000" font-family="sans-serif" font-size="14" lengthAdjust="spacing" textLength="149" x="27" y="296.9863">setNombre(String): void</text><ellipse cx="18" cy="310.3672" fill="#84BE84" rx="3" ry="3" style="stroke:#038048;stroke-width:1.0;"/><text fill="#000000" font-family="sans-serif" font-size="14" lengthAdjust="spacing" textLength="132" x="27" y="314.5957">getApellidos(): String</text><ellipse cx="18" cy="327.9766" fill="#84BE84" rx="3" ry="3" style="stroke:#038048;stroke-width:1.0;"/><text fill="#000000" font-family="sans-serif" font-size="14" lengthAdjust="spacing" textLength="157" x="27" y="332.2051">setApellidos(String): void</text><ellipse cx="18" cy="345.5859" fill="#84BE84" rx="3" ry="3" style="stroke:#038048;stroke-width:1.0;"/><text fill="#000000" font-family="sans-serif" font-size="14" lengthAdjust="spacing" textLength="96" x="27" y="349.8145">getDni(): String</text><ellipse cx="18" cy="363.1953" fill="#84BE84" rx="3" ry="3" style="stroke:#038048;stroke-width:1.0;"/><text fill="#000000" font-family="sans-serif" font-size="14" lengthAdjust="spacing" textLength="121" x="27" y="367.4238">setDni(String): void</text><ellipse cx="18" cy="380.8047" fill="#84BE84" rx="3" ry="3" style="stroke:#038048;stroke-width:1.0;"/><text fill="#000000" font-family="sans-serif" font-size="14" lengthAdjust="spacing" textLength="109" x="27" y="385.0332">getEmail(): String</text><ellipse cx="18" cy="398.4141" fill="#84BE84" rx="3" ry="3" style="stroke:#038048;stroke-width:1.0;"/><text fill="#000000" font-family="sans-serif" font-size="14" lengthAdjust="spacing" textLength="134" x="27" y="402.6426">setEmail(String): void</text><ellipse cx="18" cy="416.0234" fill="#84BE84" rx="3" ry="3" style="stroke:#038048;stroke-width:1.0;"/><text fill="#000000" font-family="sans-serif" font-size="14" lengthAdjust="spacing" textLength="104" x="27" y="420.252">toString(): String</text><ellipse cx="18" cy="433.6328" fill="#84BE84" rx="3" ry="3" style="stroke:#038048;stroke-width:1.0;"/><text fill="#000000" font-family="sans-serif" font-size="14" lengthAdjust="spacing" textLength="152" x="27" y="437.8613">equals(Object): boolean</text></g></a><!--class java.lang.Object--><g id="elem_java.lang.Object"><rect codeLine="24" fill="#F1F1F1" height="40.1875" id="java.lang.Object" rx="2.5" ry="2.5" style="stroke:#181818;stroke-width:0.5;" width="76" x="99.5" y="7"/><ellipse cx="114.5" cy="27.0938" fill="#ADD1B2" rx="11" ry="11" style="stroke:#181818;stroke-width:1.0;"/><path d="M117.2656,22.9688 Q117.4219,22.75 117.6094,22.6406 Q117.7969,22.5313 118.0156,22.5313 Q118.3906,22.5313 118.625,22.7969 Q118.8594,23.0469 118.8594,23.6563 L118.8594,25.1094 Q118.8594,25.7188 118.625,25.9844 Q118.3906,26.25 118.0156,26.25 Q117.6719,26.25 117.4688,26.0469 Q117.2656,25.8594 117.1563,25.3438 Q117.1094,24.9844 116.9219,24.7969 Q116.5938,24.4219 115.9844,24.2031 Q115.375,23.9844 114.75,23.9844 Q113.9844,23.9844 113.3438,24.3125 Q112.7188,24.6406 112.2188,25.3906 Q111.7344,26.1406 111.7344,27.1719 L111.7344,28.2656 Q111.7344,29.5 112.625,30.3281 Q113.5156,31.1406 115.1094,31.1406 Q116.0469,31.1406 116.7031,30.8906 Q117.0938,30.7344 117.5156,30.2969 Q117.7813,30.0313 117.9219,29.9531 Q118.0781,29.875 118.2813,29.875 Q118.6094,29.875 118.8594,30.1406 Q119.125,30.3906 119.125,30.7344 Q119.125,31.0781 118.7813,31.4844 Q118.2813,32.0625 117.4844,32.3906 Q116.4063,32.8438 115.1094,32.8438 Q113.5938,32.8438 112.3906,32.2188 Q111.4063,31.7188 110.7188,30.6563 Q110.0313,29.5781 110.0313,28.2969 L110.0313,27.1406 Q110.0313,25.8125 110.6406,24.6719 Q111.2656,23.5156 112.3594,22.9063 Q113.4531,22.2813 114.6875,22.2813 Q115.4219,22.2813 116.0625,22.4531 Q116.7188,22.6094 117.2656,22.9688 Z " fill="#000000"/><text fill="#000000" font-family="sans-serif" font-size="14" lengthAdjust="spacing" textLength="41" x="130" y="26.5332">Object</text><text fill="#000000" font-family="sans-serif" font-size="10" lengthAdjust="spacing" textLength="44" x="128.5" y="39.9902">java.lang</text></g><!--reverse link java.lang.Object to org.hmis.instituto.Persona--><g id="link_java.lang.Object_org.hmis.instituto.Persona"><path codeLine="26" d="M137.5,67.63 C137.5,79.19 137.5,92.61 137.5,106.95 " fill="none" id="java.lang.Object-backto-org.hmis.instituto.Persona" style="stroke:#181818;stroke-width:1.0;"/><polygon fill="none" points="130.5,67.38,137.5,47.38,144.5,67.38,130.5,67.38" style="stroke:#181818;stroke-width:1.0;"/></g><text fill="#888888" font-family="sans-serif" font-size="10" lengthAdjust="spacing" textLength="184" x="38.5" y="461.3184">UMLDoclet 2.1.0, PlantUML 1.2022.14</text><!--SRC=[VPDBQy904CVl_HI3K8XK5oqzYGW5U-j3a9wiXpKPavNTcNHt5VhwxjqywYkckIJv_UStauG908133oGDkbp6ECTSMkdP0Z7XLOWXKma2cjn_m5gXJjmvDUWp3hZaiPREGMVir2UEXdUJ6Lh79D-e9eC9srHaHZcXo7dbjvux81qqiQXTM2pgAv5vevTB-2f75KUVsAmiZc3khQBqm6MEMgk4NJDAI3KX6gbq0z_KWwDk4rMbFRXyFX9IzC_bKqRTvW2t3sjl13jMoObz__SkBGqEUNkFAQaMkqZQlOVYkxIOLTRYUgw2Iow-RwLsqSjgWx4F-OfPewIouEVo7bMrHskqaJifjAIqt9xzdQWAgoRd5CRV_Vu_crQFHl9eOSrSd5wV7gSSw_2Jt8gX6FHW5XhwGE5w5op557L_0G00]--></g></svg>