<?xml version="1.0" encoding="UTF-8" standalone="no"?><svg xmlns="http://www.w3.org/2000/svg" xmlns:xlink="http://www.w3.org/1999/xlink" contentStyleType="text/css" height="436px" preserveAspectRatio="none" style="width:365px;height:436px;background:#FFFFFF;" version="1.1" viewBox="0 0 365 436" width="365px" zoomAndPan="magnify"><defs/><g><!--class org.hmis.instituto.Profesor--><a href="Profesor.html" target="_top" title="Profesor.html" xlink:actuate="onRequest" xlink:href="Profesor.html" xlink:show="new" xlink:title="Profesor.html" xlink:type="simple"><g id="elem_org.hmis.instituto.Profesor"><rect codeLine="5" fill="#F1F1F1" height="302.7188" id="org.hmis.instituto.Profesor" rx="2.5" ry="2.5" style="stroke:#181818;stroke-width:0.5;" width="351" x="7" y="107"/><ellipse cx="138.25" cy="127.0938" fill="#ADD1B2" rx="11" ry="11" style="stroke:#181818;stroke-width:1.0;"/><path d="M141.0156,122.9688 Q141.1719,122.75 141.3594,122.6406 Q141.5469,122.5313 141.7656,122.5313 Q142.1406,122.5313 142.375,122.7969 Q142.6094,123.0469 142.6094,123.6563 L142.6094,125.1094 Q142.6094,125.7188 142.375,125.9844 Q142.1406,126.25 141.7656,126.25 Q141.4219,126.25 141.2188,126.0469 Q141.0156,125.8594 140.9063,125.3438 Q140.8594,124.9844 140.6719,124.7969 Q140.3438,124.4219 139.7344,124.2031 Q139.125,123.9844 138.5,123.9844 Q137.7344,123.9844 137.0938,124.3125 Q136.4688,124.6406 135.9688,125.3906 Q135.4844,126.1406 135.4844,127.1719 L135.4844,128.2656 Q135.4844,129.5 136.375,130.3281 Q137.2656,131.1406 138.8594,131.1406 Q139.7969,131.1406 140.4531,130.8906 Q140.8438,130.7344 141.2656,130.2969 Q141.5313,130.0313 141.6719,129.9531 Q141.8281,129.875 142.0313,129.875 Q142.3594,129.875 142.6094,130.1406 Q142.875,130.3906 142.875,130.7344 Q142.875,131.0781 142.5313,131.4844 Q142.0313,132.0625 141.2344,132.3906 Q140.1563,132.8438 138.8594,132.8438 Q137.3438,132.8438 136.1406,132.2188 Q135.1563,131.7188 134.4688,130.6563 Q133.7813,129.5781 133.7813,128.2969 L133.7813,127.1406 Q133.7813,125.8125 134.3906,124.6719 Q135.0156,123.5156 136.1094,122.9063 Q137.2031,122.2813 138.4375,122.2813 Q139.1719,122.2813 139.8125,122.4531 Q140.4688,122.6094 141.0156,122.9688 Z " fill="#000000"/><text fill="#000000" font-family="sans-serif" font-size="14" lengthAdjust="spacing" textLength="54" x="171.75" y="126.5332">Profesor</text><text fill="#000000" font-family="sans-serif" font-size="10" lengthAdjust="spacing" textLength="80" x="158.75" y="139.9902">org.hmis.instituto</text><line style="stroke:#181818;stroke-width:0.5;" x1="8" x2="357" y1="147.1875" y2="147.1875"/><rect fill="none" height="6" style="stroke:#C82930;stroke-width:1.0;" width="6" x="15" y="158.4922"/><text fill="#000000" font-family="sans-serif" font-size="14" lengthAdjust="spacing" textLength="172" x="27" y="165.7207">fechaDeContratacion: Date</text><rect fill="none" height="6" style="stroke:#C82930;stroke-width:1.0;" width="6" x="15" y="176.1016"/><text fill="#000000" font-family="sans-serif" font-size="14" lengthAdjust="spacing" textLength="117" x="27" y="183.3301">dineroMes: double</text><rect fill="none" height="6" style="stroke:#C82930;stroke-width:1.0;" width="6" x="15" y="193.7109"/><text fill="#000000" font-family="sans-serif" font-size="14" lengthAdjust="spacing" textLength="270" x="27" y="200.9395">imparteAsignaturas: ArrayList&lt;Asignatura&gt;</text><line style="stroke:#181818;stroke-width:0.5;" x1="8" x2="357" y1="208.0156" y2="208.0156"/><ellipse cx="18" cy="222.3203" fill="#84BE84" rx="3" ry="3" style="stroke:#038048;stroke-width:1.0;"/><text fill="#000000" font-family="sans-serif" font-size="14" lengthAdjust="spacing" textLength="64" x="27" y="226.5488">Profesor()</text><ellipse cx="18" cy="239.9297" fill="#84BE84" rx="3" ry="3" style="stroke:#038048;stroke-width:1.0;"/><text fill="#000000" font-family="sans-serif" font-size="14" lengthAdjust="spacing" textLength="204" x="27" y="244.1582">Profesor(ArrayList&lt;Asignatura&gt;)</text><ellipse cx="18" cy="257.5391" fill="#84BE84" rx="3" ry="3" style="stroke:#038048;stroke-width:1.0;"/><text fill="#000000" font-family="sans-serif" font-size="14" lengthAdjust="spacing" textLength="207" x="27" y="261.7676">getFechaDeContratacion(): Date</text><ellipse cx="18" cy="275.1484" fill="#84BE84" rx="3" ry="3" style="stroke:#038048;stroke-width:1.0;"/><text fill="#000000" font-family="sans-serif" font-size="14" lengthAdjust="spacing" textLength="232" x="27" y="279.377">setFechaDeContratacion(Date): void</text><ellipse cx="18" cy="292.7578" fill="#84BE84" rx="3" ry="3" style="stroke:#038048;stroke-width:1.0;"/><text fill="#000000" font-family="sans-serif" font-size="14" lengthAdjust="spacing" textLength="149" x="27" y="296.9863">getDineroMes(): double</text><ellipse cx="18" cy="310.3672" fill="#84BE84" rx="3" ry="3" style="stroke:#038048;stroke-width:1.0;"/><text fill="#000000" font-family="sans-serif" font-size="14" lengthAdjust="spacing" textLength="174" x="27" y="314.5957">setDineroMes(double): void</text><ellipse cx="18" cy="327.9766" fill="#84BE84" rx="3" ry="3" style="stroke:#038048;stroke-width:1.0;"/><text fill="#000000" font-family="sans-serif" font-size="14" lengthAdjust="spacing" textLength="300" x="27" y="332.2051">getimparteAsignaturas(): ArrayList&lt;Asignatura&gt;</text><ellipse cx="18" cy="345.5859" fill="#84BE84" rx="3" ry="3" style="stroke:#038048;stroke-width:1.0;"/><text fill="#000000" font-family="sans-serif" font-size="14" lengthAdjust="spacing" textLength="325" x="27" y="349.8145">setimparteAsignaturas(ArrayList&lt;Asignatura&gt;): void</text><ellipse cx="18" cy="363.1953" fill="#84BE84" rx="3" ry="3" style="stroke:#038048;stroke-width:1.0;"/><text fill="#000000" font-family="sans-serif" font-size="14" lengthAdjust="spacing" textLength="104" x="27" y="367.4238">antiguedad(): int</text><ellipse cx="18" cy="380.8047" fill="#84BE84" rx="3" ry="3" style="stroke:#038048;stroke-width:1.0;"/><text fill="#000000" font-family="sans-serif" font-size="14" lengthAdjust="spacing" textLength="156" x="27" y="385.0332">dineroTotalGanado(): int</text><ellipse cx="18" cy="398.4141" fill="#84BE84" rx="3" ry="3" style="stroke:#038048;stroke-width:1.0;"/><text fill="#000000" font-family="sans-serif" font-size="14" lengthAdjust="spacing" textLength="177" x="27" y="402.6426">calcularNotaMedia(): double</text></g></a><!--class org.hmis.instituto.Persona--><a href="Persona.html" target="_top" title="Persona.html" xlink:actuate="onRequest" xlink:href="Persona.html" xlink:show="new" xlink:title="Persona.html" xlink:type="simple"><g id="elem_org.hmis.instituto.Persona"><rect codeLine="22" fill="#F1F1F1" height="40.1875" id="org.hmis.instituto.Persona" rx="2.5" ry="2.5" style="stroke:#181818;stroke-width:0.5;" width="112" x="126.5" y="7"/><ellipse cx="141.5" cy="27.0938" fill="#ADD1B2" rx="11" ry="11" style="stroke:#181818;stroke-width:1.0;"/><path d="M144.2656,22.9688 Q144.4219,22.75 144.6094,22.6406 Q144.7969,22.5313 145.0156,22.5313 Q145.3906,22.5313 145.625,22.7969 Q145.8594,23.0469 145.8594,23.6563 L145.8594,25.1094 Q145.8594,25.7188 145.625,25.9844 Q145.3906,26.25 145.0156,26.25 Q144.6719,26.25 144.4688,26.0469 Q144.2656,25.8594 144.1563,25.3438 Q144.1094,24.9844 143.9219,24.7969 Q143.5938,24.4219 142.9844,24.2031 Q142.375,23.9844 141.75,23.9844 Q140.9844,23.9844 140.3438,24.3125 Q139.7188,24.6406 139.2188,25.3906 Q138.7344,26.1406 138.7344,27.1719 L138.7344,28.2656 Q138.7344,29.5 139.625,30.3281 Q140.5156,31.1406 142.1094,31.1406 Q143.0469,31.1406 143.7031,30.8906 Q144.0938,30.7344 144.5156,30.2969 Q144.7813,30.0313 144.9219,29.9531 Q145.0781,29.875 145.2813,29.875 Q145.6094,29.875 145.8594,30.1406 Q146.125,30.3906 146.125,30.7344 Q146.125,31.0781 145.7813,31.4844 Q145.2813,32.0625 144.4844,32.3906 Q143.4063,32.8438 142.1094,32.8438 Q140.5938,32.8438 139.3906,32.2188 Q138.4063,31.7188 137.7188,30.6563 Q137.0313,29.5781 137.0313,28.2969 L137.0313,27.1406 Q137.0313,25.8125 137.6406,24.6719 Q138.2656,23.5156 139.3594,22.9063 Q140.4531,22.2813 141.6875,22.2813 Q142.4219,22.2813 143.0625,22.4531 Q143.7188,22.6094 144.2656,22.9688 Z " fill="#000000"/><text fill="#000000" font-family="sans-serif" font-size="14" lengthAdjust="spacing" textLength="53" x="169" y="26.5332">Persona</text><text fill="#000000" font-family="sans-serif" font-size="10" lengthAdjust="spacing" textLength="80" x="155.5" y="39.9902">org.hmis.instituto</text></g></a><!--reverse link org.hmis.instituto.Persona to org.hmis.instituto.Profesor--><g id="link_org.hmis.instituto.Persona_org.hmis.instituto.Profesor"><path codeLine="24" d="M182.5,67.57 C182.5,79.21 182.5,92.68 182.5,106.98 " fill="none" id="org.hmis.instituto.Persona-backto-org.hmis.instituto.Profesor" style="stroke:#181818;stroke-width:1.0;"/><polygon fill="none" points="175.5,67.17,182.5,47.17,189.5,67.17,175.5,67.17" style="stroke:#181818;stroke-width:1.0;"/></g><text fill="#888888" font-family="sans-serif" font-size="10" lengthAdjust="spacing" textLength="184" x="83.5" y="426.0996">UMLDoclet 2.1.0, PlantUML 1.2022.14</text><!--SRC=[dLDDQy904BttLmn2GR46BJs9259fBrg4jYVhOPeTpS9cHtOdWltuxzqORMnCBNGlMTwyUVEHjm00dWGifkJN6DCZhT6Xi0FBbYv261Aj22XTonQMcepoLJGbIJZ0Epmsw3qq1bw_KRztCvmvNf9dzsBtK7V8RXKbgVQHjbwqPC8DG0-dS7H8XldyS8qIISrY0U-xQldfB2bES4otR2MqZh5csuSn2fKKfIqvdfBlW-BirHo5T1ec5XfvlR8ecSF06Jc7sudsCYZXuNTA-z1BirM3rUOU4LSaTwSDDrkLbjk-dfUJ0dV3MltG71ycp9KgC-PQPRm8rccShY8N-sCPlZQlVWlLccX5hp9IgF92saePAlxO4mkQUxIe-8GHeuapW-uXSAQaD5Oc__p5aEGyM_oV7ulSt8x5RU_6ejAPXC57ftFEuFjMoGevM3Bdd-VfPCon2Q_pEkf5tIkOcR2lWCBb9iZkJFC5]--></g></svg>