<?xml version="1.0" encoding="UTF-8" standalone="no"?><svg xmlns="http://www.w3.org/2000/svg" xmlns:xlink="http://www.w3.org/1999/xlink" contentStyleType="text/css" height="401px" preserveAspectRatio="none" style="width:197px;height:401px;background:#FFFFFF;" version="1.1" viewBox="0 0 197 401" width="197px" zoomAndPan="magnify"><defs/><g><!--class org.hmis.instituto.Proyector--><a href="Proyector.html" target="_top" title="Proyector.html" xlink:actuate="onRequest" xlink:href="Proyector.html" xlink:show="new" xlink:title="Proyector.html" xlink:type="simple"><g id="elem_org.hmis.instituto.Proyector"><rect codeLine="5" fill="#F1F1F1" height="267.5" id="org.hmis.instituto.Proyector" rx="2.5" ry="2.5" style="stroke:#181818;stroke-width:0.5;" width="183" x="7.5" y="107"/><ellipse cx="54.75" cy="127.0938" fill="#ADD1B2" rx="11" ry="11" style="stroke:#181818;stroke-width:1.0;"/><path d="M57.5156,122.9688 Q57.6719,122.75 57.8594,122.6406 Q58.0469,122.5313 58.2656,122.5313 Q58.6406,122.5313 58.875,122.7969 Q59.1094,123.0469 59.1094,123.6563 L59.1094,125.1094 Q59.1094,125.7188 58.875,125.9844 Q58.6406,126.25 58.2656,126.25 Q57.9219,126.25 57.7188,126.0469 Q57.5156,125.8594 57.4063,125.3438 Q57.3594,124.9844 57.1719,124.7969 Q56.8438,124.4219 56.2344,124.2031 Q55.625,123.9844 55,123.9844 Q54.2344,123.9844 53.5938,124.3125 Q52.9688,124.6406 52.4688,125.3906 Q51.9844,126.1406 51.9844,127.1719 L51.9844,128.2656 Q51.9844,129.5 52.875,130.3281 Q53.7656,131.1406 55.3594,131.1406 Q56.2969,131.1406 56.9531,130.8906 Q57.3438,130.7344 57.7656,130.2969 Q58.0313,130.0313 58.1719,129.9531 Q58.3281,129.875 58.5313,129.875 Q58.8594,129.875 59.1094,130.1406 Q59.375,130.3906 59.375,130.7344 Q59.375,131.0781 59.0313,131.4844 Q58.5313,132.0625 57.7344,132.3906 Q56.6563,132.8438 55.3594,132.8438 Q53.8438,132.8438 52.6406,132.2188 Q51.6563,131.7188 50.9688,130.6563 Q50.2813,129.5781 50.2813,128.2969 L50.2813,127.1406 Q50.2813,125.8125 50.8906,124.6719 Q51.5156,123.5156 52.6094,122.9063 Q53.7031,122.2813 54.9375,122.2813 Q55.6719,122.2813 56.3125,122.4531 Q56.9688,122.6094 57.5156,122.9688 Z " fill="#000000"/><text fill="#000000" font-family="sans-serif" font-size="14" lengthAdjust="spacing" textLength="61" x="84.75" y="126.5332">Proyector</text><text fill="#000000" font-family="sans-serif" font-size="10" lengthAdjust="spacing" textLength="80" x="75.25" y="139.9902">org.hmis.instituto</text><line style="stroke:#181818;stroke-width:0.5;" x1="8.5" x2="189.5" y1="147.1875" y2="147.1875"/><rect fill="none" height="6" style="stroke:#C82930;stroke-width:1.0;" width="6" x="15.5" y="158.4922"/><text fill="#000000" font-family="sans-serif" font-size="14" lengthAdjust="spacing" textLength="84" x="27.5" y="165.7207">marca: String</text><rect fill="none" height="6" style="stroke:#C82930;stroke-width:1.0;" width="6" x="15.5" y="176.1016"/><text fill="#000000" font-family="sans-serif" font-size="14" lengthAdjust="spacing" textLength="97" x="27.5" y="183.3301">resolucionH: int</text><rect fill="none" height="6" style="stroke:#C82930;stroke-width:1.0;" width="6" x="15.5" y="193.7109"/><text fill="#000000" font-family="sans-serif" font-size="14" lengthAdjust="spacing" textLength="97" x="27.5" y="200.9395">resolucionV: int</text><line style="stroke:#181818;stroke-width:0.5;" x1="8.5" x2="189.5" y1="208.0156" y2="208.0156"/><ellipse cx="18.5" cy="222.3203" fill="#84BE84" rx="3" ry="3" style="stroke:#038048;stroke-width:1.0;"/><text fill="#000000" font-family="sans-serif" font-size="14" lengthAdjust="spacing" textLength="154" x="27.5" y="226.5488">Proyector(String, int, int)</text><ellipse cx="18.5" cy="239.9297" fill="#84BE84" rx="3" ry="3" style="stroke:#038048;stroke-width:1.0;"/><text fill="#000000" font-family="sans-serif" font-size="14" lengthAdjust="spacing" textLength="114" x="27.5" y="244.1582">getMarca(): String</text><ellipse cx="18.5" cy="257.5391" fill="#84BE84" rx="3" ry="3" style="stroke:#038048;stroke-width:1.0;"/><text fill="#000000" font-family="sans-serif" font-size="14" lengthAdjust="spacing" textLength="139" x="27.5" y="261.7676">setMarca(String): void</text><ellipse cx="18.5" cy="275.1484" fill="#84BE84" rx="3" ry="3" style="stroke:#038048;stroke-width:1.0;"/><text fill="#000000" font-family="sans-serif" font-size="14" lengthAdjust="spacing" textLength="132" x="27.5" y="279.377">getResolucionH(): int</text><ellipse cx="18.5" cy="292.7578" fill="#84BE84" rx="3" ry="3" style="stroke:#038048;stroke-width:1.0;"/><text fill="#000000" font-family="sans-serif" font-size="14" lengthAdjust="spacing" textLength="157" x="27.5" y="296.9863">setResolucionH(int): void</text><ellipse cx="18.5" cy="310.3672" fill="#84BE84" rx="3" ry="3" style="stroke:#038048;stroke-width:1.0;"/><text fill="#000000" font-family="sans-serif" font-size="14" lengthAdjust="spacing" textLength="132" x="27.5" y="314.5957">getResolucionV(): int</text><ellipse cx="18.5" cy="327.9766" fill="#84BE84" rx="3" ry="3" style="stroke:#038048;stroke-width:1.0;"/><text fill="#000000" font-family="sans-serif" font-size="14" lengthAdjust="spacing" textLength="157" x="27.5" y="332.2051">setResolucionV(int): void</text><ellipse cx="18.5" cy="345.5859" fill="#84BE84" rx="3" ry="3" style="stroke:#038048;stroke-width:1.0;"/><text fill="#000000" font-family="sans-serif" font-size="14" lengthAdjust="spacing" textLength="104" x="27.5" y="349.8145">toString(): String</text><ellipse cx="18.5" cy="363.1953" fill="#84BE84" rx="3" ry="3" style="stroke:#038048;stroke-width:1.0;"/><text fill="#000000" font-family="sans-serif" font-size="14" lengthAdjust="spacing" textLength="152" x="27.5" y="367.4238">equals(Object): boolean</text></g></a><!--class org.hmis.instituto.Equipamiento--><a href="Equipamiento.html" target="_top" title="Equipamiento.html" xlink:actuate="onRequest" xlink:href="Equipamiento.html" xlink:show="new" xlink:title="Equipamiento.html" xlink:type="simple"><g id="elem_org.hmis.instituto.Equipamiento"><rect codeLine="20" fill="#F1F1F1" height="40.1875" id="org.hmis.instituto.Equipamiento" rx="2.5" ry="2.5" style="stroke:#181818;stroke-width:0.5;" width="118" x="40" y="7"/><ellipse cx="55" cy="27.0938" fill="#A9DCDF" rx="11" ry="11" style="stroke:#181818;stroke-width:1.0;"/><path d="M57.1875,28.8594 L53.0469,28.8594 L52.625,29.8906 L53.0469,29.8906 Q53.6563,29.8906 53.9219,30.125 Q54.1875,30.3594 54.1875,30.75 Q54.1875,31.125 53.9219,31.3594 Q53.6563,31.5938 53.0469,31.5938 L50.75,31.5938 Q50.1406,31.5938 49.8906,31.3594 Q49.625,31.125 49.625,30.7344 Q49.625,30.3594 49.9063,30.125 Q50.1719,29.875 50.7969,29.8906 L53.4688,23.2344 L52.3594,23.2344 Q51.75,23.2344 51.4844,23 Q51.2188,22.7656 51.2188,22.375 Q51.2188,22 51.4844,21.7656 Q51.75,21.5313 52.3594,21.5313 L56.0313,21.5313 L59.4219,29.8906 Q60.0156,29.8906 60.2031,30.0313 Q60.5938,30.2969 60.5938,30.75 Q60.5938,31.125 60.3281,31.3594 Q60.0781,31.5938 59.4688,31.5938 L57.1719,31.5938 Q56.5625,31.5938 56.2969,31.3594 Q56.0313,31.125 56.0313,30.7344 Q56.0313,30.3594 56.2969,30.125 Q56.5625,29.8906 57.1719,29.8906 L57.5938,29.8906 L57.1875,28.8594 Z M56.4688,27.1563 L55.1094,23.7813 L53.7344,27.1563 L56.4688,27.1563 Z " fill="#000000"/><text fill="#000000" font-family="sans-serif" font-size="14" font-style="italic" lengthAdjust="spacing" textLength="86" x="69" y="26.5332">Equipamiento</text><text fill="#000000" font-family="sans-serif" font-size="10" font-style="italic" lengthAdjust="spacing" textLength="80" x="72" y="39.9902">org.hmis.instituto</text></g></a><!--reverse link org.hmis.instituto.Equipamiento to org.hmis.instituto.Proyector--><g id="link_org.hmis.instituto.Equipamiento_org.hmis.instituto.Proyector"><path codeLine="22" d="M99,67.58 C99,79.18 99,92.55 99,106.62 " fill="none" id="org.hmis.instituto.Equipamiento-backto-org.hmis.instituto.Proyector" style="stroke:#181818;stroke-width:1.0;"/><polygon fill="none" points="92,67.19,99,47.19,106,67.19,92,67.19" style="stroke:#181818;stroke-width:1.0;"/></g><text fill="#888888" font-family="sans-serif" font-size="10" lengthAdjust="spacing" textLength="184" x="0" y="390.8809">UMLDoclet 2.1.0, PlantUML 1.2022.14</text><!--SRC=[dLDDQy904BttLmn28Q86BJs9U6gXXqgbqboiXpMEPijc9-vC1Flntxj9h9eg5fh39llUp7l3lWq00AE0LIbofcASOAQS4d9WoUALfo7H2mHCCzd2KgDPy6yqHKd8moKU6yKCZG7hT-ptReTZHrkClU2htM7T8RbLcAIQGsrPjEH23L0Cft2uxuRfTFyT9fAQsGm-IiFYwQJAnQeF4t7QhWwmGoQJnvhiGn-qbNDCL6TQUvkWKciNTBaq3qKhb55X6JHFJ5lymrM4hzYGNjHwdmzp5GerVwxJXUz5XUYoGdHMGQWQxjpykCwLuU1f_kQFmVDp8eFAbWLVLSXgpk9KB2TftwzpdQbKenNwL-370Zxpu-qkzcg2lre7dvtEnGkrkws-61qiYOhNo-ZnZcBZ_uURi1Tssp0soef7uNg3Zlrf1irl]--></g></svg>