<?xml version="1.0" encoding="UTF-8" standalone="no"?><svg xmlns="http://www.w3.org/2000/svg" xmlns:xlink="http://www.w3.org/1999/xlink" contentStyleType="text/css" height="280px" preserveAspectRatio="none" style="width:210px;height:280px;background:#FFFFFF;" version="1.1" viewBox="0 0 210 280" width="210px" zoomAndPan="magnify"><defs/><g><!--class org.hmis.instituto.TipoTarea--><a href="TipoTarea.html" target="_top" title="TipoTarea.html" xlink:actuate="onRequest" xlink:href="TipoTarea.html" xlink:show="new" xlink:title="TipoTarea.html" xlink:type="simple"><g id="elem_org.hmis.instituto.TipoTarea"><rect codeLine="5" fill="#F1F1F1" height="144.2344" id="org.hmis.instituto.TipoTarea" rx="2.5" ry="2.5" style="stroke:#181818;stroke-width:0.5;" width="196" x="7" y="110"/><ellipse cx="60.75" cy="130.0938" fill="#EB937F" rx="11" ry="11" style="stroke:#181818;stroke-width:1.0;"/><path d="M59.6094,130.8906 L59.6094,133.3906 L63.9375,133.3906 L63.9375,132.4688 Q63.9375,131.8594 64.1719,131.5938 Q64.4219,131.3281 64.7969,131.3281 Q65.1719,131.3281 65.4063,131.5938 Q65.6406,131.8594 65.6406,132.4688 L65.6406,135.0938 L57.6406,135.0938 Q57.0156,135.0938 56.75,134.8594 Q56.5,134.625 56.5,134.2344 Q56.5,133.8594 56.7656,133.625 Q57.0313,133.3906 57.6406,133.3906 L57.9063,133.3906 L57.9063,126.7344 L57.6406,126.7344 Q57.0156,126.7344 56.75,126.5 Q56.5,126.2656 56.5,125.875 Q56.5,125.5 56.75,125.2656 Q57.0156,125.0313 57.6406,125.0313 L65.2656,125.0313 L65.2656,127.625 Q65.2656,128.2344 65.0313,128.5 Q64.8125,128.75 64.4219,128.75 Q64.0469,128.75 63.8125,128.5 Q63.5781,128.2344 63.5781,127.625 L63.5781,126.7344 L59.6094,126.7344 L59.6094,129.1875 L61.0938,129.1875 Q61.0938,128.5313 61.2188,128.3438 Q61.4844,127.9375 61.9531,127.9375 Q62.3281,127.9375 62.5625,128.2031 Q62.7969,128.4531 62.7969,129.0625 L62.7969,131.0313 Q62.7969,131.5781 62.6719,131.7656 Q62.4063,132.1563 61.9531,132.1563 Q61.4844,132.1563 61.2188,131.75 Q61.0938,131.5625 61.0938,130.8906 L59.6094,130.8906 Z " fill="#000000"/><text fill="#000000" font-family="sans-serif" font-size="14" lengthAdjust="spacing" textLength="66" x="88.25" y="129.5332">TipoTarea</text><text fill="#000000" font-family="sans-serif" font-size="10" lengthAdjust="spacing" textLength="80" x="81.25" y="142.9902">org.hmis.instituto</text><line style="stroke:#181818;stroke-width:0.5;" x1="8" x2="202" y1="150.1875" y2="150.1875"/><ellipse cx="18" cy="164.4922" fill="none" rx="3" ry="3" style="stroke:#038048;stroke-width:1.0;"/><text fill="#000000" font-family="sans-serif" font-size="14" lengthAdjust="spacing" text-decoration="underline" textLength="55" x="27" y="168.7207">EXAMEN</text><ellipse cx="18" cy="182.1016" fill="none" rx="3" ry="3" style="stroke:#038048;stroke-width:1.0;"/><text fill="#000000" font-family="sans-serif" font-size="14" lengthAdjust="spacing" text-decoration="underline" textLength="72" x="27" y="186.3301">ACTIVIDAD</text><ellipse cx="18" cy="199.7109" fill="none" rx="3" ry="3" style="stroke:#038048;stroke-width:1.0;"/><text fill="#000000" font-family="sans-serif" font-size="14" lengthAdjust="spacing" text-decoration="underline" textLength="69" x="27" y="203.9395">PRACTICA</text><line style="stroke:#181818;stroke-width:0.5;" x1="8" x2="202" y1="211.0156" y2="211.0156"/><ellipse cx="18" cy="225.3203" fill="#84BE84" rx="3" ry="3" style="stroke:#038048;stroke-width:1.0;"/><text fill="#000000" font-family="sans-serif" font-size="14" lengthAdjust="spacing" text-decoration="underline" textLength="133" x="27" y="229.5488">values(): TipoTarea[]</text><ellipse cx="18" cy="242.9297" fill="#84BE84" rx="3" ry="3" style="stroke:#038048;stroke-width:1.0;"/><text fill="#000000" font-family="sans-serif" font-size="14" lengthAdjust="spacing" text-decoration="underline" textLength="170" x="27" y="247.1582">valueOf(String): TipoTarea</text></g></a><!--class java.lang.Enum--><g id="elem_java.lang.Enum"><rect codeLine="13" fill="#F1F1F1" height="40.1875" id="java.lang.Enum" rx="2.5" ry="2.5" style="stroke:#181818;stroke-width:0.5;" width="135" x="37.5" y="10"/><ellipse cx="52.5" cy="30.0938" fill="#A9DCDF" rx="11" ry="11" style="stroke:#181818;stroke-width:1.0;"/><path d="M54.6875,31.8594 L50.5469,31.8594 L50.125,32.8906 L50.5469,32.8906 Q51.1563,32.8906 51.4219,33.125 Q51.6875,33.3594 51.6875,33.75 Q51.6875,34.125 51.4219,34.3594 Q51.1563,34.5938 50.5469,34.5938 L48.25,34.5938 Q47.6406,34.5938 47.3906,34.3594 Q47.125,34.125 47.125,33.7344 Q47.125,33.3594 47.4063,33.125 Q47.6719,32.875 48.2969,32.8906 L50.9688,26.2344 L49.8594,26.2344 Q49.25,26.2344 48.9844,26 Q48.7188,25.7656 48.7188,25.375 Q48.7188,25 48.9844,24.7656 Q49.25,24.5313 49.8594,24.5313 L53.5313,24.5313 L56.9219,32.8906 Q57.5156,32.8906 57.7031,33.0313 Q58.0938,33.2969 58.0938,33.75 Q58.0938,34.125 57.8281,34.3594 Q57.5781,34.5938 56.9688,34.5938 L54.6719,34.5938 Q54.0625,34.5938 53.7969,34.3594 Q53.5313,34.125 53.5313,33.7344 Q53.5313,33.3594 53.7969,33.125 Q54.0625,32.8906 54.6719,32.8906 L55.0938,32.8906 L54.6875,31.8594 Z M53.9688,30.1563 L52.6094,26.7813 L51.2344,30.1563 L53.9688,30.1563 Z " fill="#000000"/><text fill="#000000" font-family="sans-serif" font-size="14" font-style="italic" lengthAdjust="spacing" textLength="36" x="70" y="29.5332">Enum</text><text fill="#000000" font-family="sans-serif" font-size="10" font-style="italic" lengthAdjust="spacing" textLength="43" x="66.5" y="42.9902">java.lang</text><rect fill="#FFFFFF" height="17.0938" style="stroke:#181818;stroke-width:1.0;stroke-dasharray:2.0,2.0;" width="58" x="117.5" y="7"/><text fill="#000000" font-family="sans-serif" font-size="12" font-style="italic" lengthAdjust="spacing" textLength="56" x="118.5" y="20.457">TipoTarea</text></g><!--reverse link java.lang.Enum to org.hmis.instituto.TipoTarea--><g id="link_java.lang.Enum_org.hmis.instituto.TipoTarea"><path codeLine="15" d="M105,70.52 C105,82.61 105,96.29 105,109.8 " fill="none" id="java.lang.Enum-backto-org.hmis.instituto.TipoTarea" style="stroke:#181818;stroke-width:1.0;"/><polygon fill="none" points="98,70.3,105,50.3,112,70.3,98,70.3" style="stroke:#181818;stroke-width:1.0;"/></g><text fill="#888888" font-family="sans-serif" font-size="10" lengthAdjust="spacing" textLength="184" x="6" y="270.6152">UMLDoclet 2.1.0, PlantUML 1.2022.14</text><!--SRC=[VP9FIyD04CNlVegX8BHebrOybH08RGy5gyLM4M8FOpfjLfBTi3C9QErtDtyaLAtkPNVUxyqCF1O0W4d0O4gSOKHBoj2XM0V66ZehCSHwGq1f9c-mrPHi-AUQaiIsb6kTJ9v2nsFzJgFXjR_IcLsX8tmsNzh0jswdubIpqeP5Iows0yZmMrPjDuHX-rQnfCbw3VjwNtNsB2WwEi35z2cOJszFW62ycZtE9i7a15lSLtGSd4059ZbnjpU2Tdsu_ijtj-qknMcpExRNvaEJ3RwmE8m4eWIPZrAQbg4T1VIA1Qe4pQxEfQrKPVFQoNupz3i6xwFV_pVAfYiY8-HWQsrrFSnl9ZPAoezmfOPgS0cBSg2KAfmNv5XRq-rz0W00]--></g></svg>