<?xml version="1.0" encoding="UTF-8" standalone="no"?><svg xmlns="http://www.w3.org/2000/svg" xmlns:xlink="http://www.w3.org/1999/xlink" contentStyleType="text/css" height="295px" preserveAspectRatio="none" style="width:224px;height:295px;background:#FFFFFF;" version="1.1" viewBox="0 0 224 295" width="224px" zoomAndPan="magnify"><defs/><g><!--class org.hmis.instituto.Tutor--><a href="Tutor.html" target="_top" title="Tutor.html" xlink:actuate="onRequest" xlink:href="Tutor.html" xlink:show="new" xlink:title="Tutor.html" xlink:type="simple"><g id="elem_org.hmis.instituto.Tutor"><rect codeLine="5" fill="#F1F1F1" height="161.8438" id="org.hmis.instituto.Tutor" rx="2.5" ry="2.5" style="stroke:#181818;stroke-width:0.5;" width="210" x="7" y="107"/><ellipse cx="67.75" cy="127.0938" fill="#ADD1B2" rx="11" ry="11" style="stroke:#181818;stroke-width:1.0;"/><path d="M70.5156,122.9688 Q70.6719,122.75 70.8594,122.6406 Q71.0469,122.5313 71.2656,122.5313 Q71.6406,122.5313 71.875,122.7969 Q72.1094,123.0469 72.1094,123.6563 L72.1094,125.1094 Q72.1094,125.7188 71.875,125.9844 Q71.6406,126.25 71.2656,126.25 Q70.9219,126.25 70.7188,126.0469 Q70.5156,125.8594 70.4063,125.3438 Q70.3594,124.9844 70.1719,124.7969 Q69.8438,124.4219 69.2344,124.2031 Q68.625,123.9844 68,123.9844 Q67.2344,123.9844 66.5938,124.3125 Q65.9688,124.6406 65.4688,125.3906 Q64.9844,126.1406 64.9844,127.1719 L64.9844,128.2656 Q64.9844,129.5 65.875,130.3281 Q66.7656,131.1406 68.3594,131.1406 Q69.2969,131.1406 69.9531,130.8906 Q70.3438,130.7344 70.7656,130.2969 Q71.0313,130.0313 71.1719,129.9531 Q71.3281,129.875 71.5313,129.875 Q71.8594,129.875 72.1094,130.1406 Q72.375,130.3906 72.375,130.7344 Q72.375,131.0781 72.0313,131.4844 Q71.5313,132.0625 70.7344,132.3906 Q69.6563,132.8438 68.3594,132.8438 Q66.8438,132.8438 65.6406,132.2188 Q64.6563,131.7188 63.9688,130.6563 Q63.2813,129.5781 63.2813,128.2969 L63.2813,127.1406 Q63.2813,125.8125 63.8906,124.6719 Q64.5156,123.5156 65.6094,122.9063 Q66.7031,122.2813 67.9375,122.2813 Q68.6719,122.2813 69.3125,122.4531 Q69.9688,122.6094 70.5156,122.9688 Z " fill="#000000"/><text fill="#000000" font-family="sans-serif" font-size="14" lengthAdjust="spacing" textLength="34" x="111.25" y="126.5332">Tutor</text><text fill="#000000" font-family="sans-serif" font-size="10" lengthAdjust="spacing" textLength="80" x="88.25" y="139.9902">org.hmis.instituto</text><line style="stroke:#181818;stroke-width:0.5;" x1="8" x2="216" y1="147.1875" y2="147.1875"/><rect fill="none" height="6" style="stroke:#C82930;stroke-width:1.0;" width="6" x="15" y="158.4922"/><text fill="#000000" font-family="sans-serif" font-size="14" lengthAdjust="spacing" textLength="128" x="27" y="165.7207">anyosTutorizado: int</text><line style="stroke:#181818;stroke-width:0.5;" x1="8" x2="216" y1="172.7969" y2="172.7969"/><ellipse cx="18" cy="187.1016" fill="#84BE84" rx="3" ry="3" style="stroke:#038048;stroke-width:1.0;"/><text fill="#000000" font-family="sans-serif" font-size="14" lengthAdjust="spacing" textLength="44" x="27" y="191.3301">Tutor()</text><ellipse cx="18" cy="204.7109" fill="#84BE84" rx="3" ry="3" style="stroke:#038048;stroke-width:1.0;"/><text fill="#000000" font-family="sans-serif" font-size="14" lengthAdjust="spacing" textLength="59" x="27" y="208.9395">Tutor(int)</text><ellipse cx="18" cy="222.3203" fill="#84BE84" rx="3" ry="3" style="stroke:#038048;stroke-width:1.0;"/><text fill="#000000" font-family="sans-serif" font-size="14" lengthAdjust="spacing" textLength="159" x="27" y="226.5488">getAnyosTutorizado(): int</text><ellipse cx="18" cy="239.9297" fill="#84BE84" rx="3" ry="3" style="stroke:#038048;stroke-width:1.0;"/><text fill="#000000" font-family="sans-serif" font-size="14" lengthAdjust="spacing" textLength="184" x="27" y="244.1582">setAnyosTutorizado(int): void</text><ellipse cx="18" cy="257.5391" fill="#84BE84" rx="3" ry="3" style="stroke:#038048;stroke-width:1.0;"/><text fill="#000000" font-family="sans-serif" font-size="14" lengthAdjust="spacing" textLength="174" x="27" y="261.7676">trieniosDeTutorizacion(): int</text></g></a><!--class org.hmis.instituto.Profesor--><a href="Profesor.html" target="_top" title="Profesor.html" xlink:actuate="onRequest" xlink:href="Profesor.html" xlink:show="new" xlink:title="Profesor.html" xlink:type="simple"><g id="elem_org.hmis.instituto.Profesor"><rect codeLine="14" fill="#F1F1F1" height="40.1875" id="org.hmis.instituto.Profesor" rx="2.5" ry="2.5" style="stroke:#181818;stroke-width:0.5;" width="112" x="56" y="7"/><ellipse cx="71" cy="27.0938" fill="#ADD1B2" rx="11" ry="11" style="stroke:#181818;stroke-width:1.0;"/><path d="M73.7656,22.9688 Q73.9219,22.75 74.1094,22.6406 Q74.2969,22.5313 74.5156,22.5313 Q74.8906,22.5313 75.125,22.7969 Q75.3594,23.0469 75.3594,23.6563 L75.3594,25.1094 Q75.3594,25.7188 75.125,25.9844 Q74.8906,26.25 74.5156,26.25 Q74.1719,26.25 73.9688,26.0469 Q73.7656,25.8594 73.6563,25.3438 Q73.6094,24.9844 73.4219,24.7969 Q73.0938,24.4219 72.4844,24.2031 Q71.875,23.9844 71.25,23.9844 Q70.4844,23.9844 69.8438,24.3125 Q69.2188,24.6406 68.7188,25.3906 Q68.2344,26.1406 68.2344,27.1719 L68.2344,28.2656 Q68.2344,29.5 69.125,30.3281 Q70.0156,31.1406 71.6094,31.1406 Q72.5469,31.1406 73.2031,30.8906 Q73.5938,30.7344 74.0156,30.2969 Q74.2813,30.0313 74.4219,29.9531 Q74.5781,29.875 74.7813,29.875 Q75.1094,29.875 75.3594,30.1406 Q75.625,30.3906 75.625,30.7344 Q75.625,31.0781 75.2813,31.4844 Q74.7813,32.0625 73.9844,32.3906 Q72.9063,32.8438 71.6094,32.8438 Q70.0938,32.8438 68.8906,32.2188 Q67.9063,31.7188 67.2188,30.6563 Q66.5313,29.5781 66.5313,28.2969 L66.5313,27.1406 Q66.5313,25.8125 67.1406,24.6719 Q67.7656,23.5156 68.8594,22.9063 Q69.9531,22.2813 71.1875,22.2813 Q71.9219,22.2813 72.5625,22.4531 Q73.2188,22.6094 73.7656,22.9688 Z " fill="#000000"/><text fill="#000000" font-family="sans-serif" font-size="14" lengthAdjust="spacing" textLength="54" x="98" y="26.5332">Profesor</text><text fill="#000000" font-family="sans-serif" font-size="10" lengthAdjust="spacing" textLength="80" x="85" y="39.9902">org.hmis.instituto</text></g></a><!--reverse link org.hmis.instituto.Profesor to org.hmis.instituto.Tutor--><g id="link_org.hmis.instituto.Profesor_org.hmis.instituto.Tutor"><path codeLine="16" d="M112,67.25 C112,79.28 112,92.99 112,106.72 " fill="none" id="org.hmis.instituto.Profesor-backto-org.hmis.instituto.Tutor" style="stroke:#181818;stroke-width:1.0;"/><polygon fill="none" points="105,67.18,112,47.18,119,67.18,105,67.18" style="stroke:#181818;stroke-width:1.0;"/></g><text fill="#888888" font-family="sans-serif" font-size="10" lengthAdjust="spacing" textLength="184" x="13" y="285.2246">UMLDoclet 2.1.0, PlantUML 1.2022.14</text><!--SRC=[dLB1IiD04Btx5KD1QD4ihNWAfI3qg51GJxM79Paq0ybEs1aBhVhlRjP4QweUtClillVcpUvZ0G045PojKHgRuJqsrbjb3uuTdWKQIieHi6vq3mLXbSiGhL5B3d34iygAm6WkTC1qThruU0vcJwuxJnVijwQiIGmvKTB0Zi0AdC8cTi9w7QifjQus6tY9GzgLMBTdYIGTRCufaDDFzY8IuyaG29eZR8jwyzrbF1duoAcazKXXnvH_oTGJEc9POY_CYDsnszlF-Qmy5oZ_ZAXl3YdrsoweZs5_jSnVa-JNsBkxebFqK32tvV7kTibP5NxBbPcPwIMiAkiqe72-Go_nkUy0]--></g></svg>